<svg preserveAspectRatio="none" width="100%" height="100%" overflow="visible" style="display: block;" viewBox="0 0 39.9982 40" fill="none" xmlns="http://www.w3.org/2000/svg">
<g id="freepik--briefcase--inject-217">
<path id="Vector" d="M39.9982 15.8333V35.7938C39.9575 36.3403 39.7562 36.8718 39.4102 37.3464C39.0642 37.8209 38.583 38.2255 38.0045 38.5281L35.6166 39.6166C34.75 39.9685 33.7594 40.0825 32.8014 39.9405C32.3956 39.8944 32.0028 39.7936 31.6403 39.6425C31.6203 39.6365 31.6017 39.6277 31.5856 39.6166L31.4377 39.5518L3.34641 26.7574C2.33705 26.2988 1.49879 25.6384 0.916096 24.8429C0.333403 24.0474 0.0268661 23.1449 0.0273787 22.2262V3.46215C0.0441186 3.22857 0.130163 3.00136 0.278562 2.79879C0.42696 2.59623 0.633566 2.42396 0.881781 2.29587L5.57553 0.162022C5.83814 0.0555406 6.12918 0 6.42447 0C6.71975 0 7.01078 0.0555406 7.27339 0.162022L39.1438 14.6713C39.3957 14.7948 39.6032 14.9674 39.7462 15.1724C39.8993 15.3725 39.9859 15.5998 39.9982 15.8333Z" fill="var(--fill-0, #2EEDAA)"/>
<path id="Vector_2" opacity="0.2" d="M39.9982 15.8333V35.7938C39.9575 36.3403 39.7562 36.8718 39.4102 37.3464C39.0642 37.8209 38.583 38.2255 38.0045 38.5281L35.6166 39.6166C34.75 39.9685 33.7594 40.0825 32.8014 39.9405C32.3956 39.8944 32.0028 39.7936 31.6403 39.6425C32.7357 40.0442 33.6011 39.595 33.6011 38.5756V19.155C33.5864 18.7995 33.4563 18.453 33.2232 18.1485L39.7243 15.1724C39.8851 15.3708 39.9793 15.5982 39.9982 15.8333Z" fill="var(--fill-0, black)"/>
<path id="Vector_3" opacity="0.3" d="M33.6011 19.155C33.5762 18.8023 33.4468 18.4592 33.2232 18.1531C32.9997 17.847 32.6883 17.5866 32.314 17.3926L2.19078 3.67813C0.996805 3.13387 6.41879e-07 3.57878 6.41879e-07 4.66298V22.2348C-0.000511976 23.1535 0.306025 24.0561 0.888718 24.8516C1.47141 25.6471 2.30967 26.3074 3.31903 26.766L31.4103 39.5604C32.5988 40.1004 33.5737 39.6598 33.5737 38.5756L33.6011 19.155Z" fill="var(--fill-0, black)"/>
<path id="Vector_4" opacity="0.6" d="M0.0273781 9.96735C0.0752918 10.643 0.323796 11.3002 0.752847 11.8862C1.1819 12.4722 1.7795 12.9705 2.49749 13.3409L31.131 26.3772C32.4893 26.9992 33.6011 26.4895 33.6011 25.2542V18.5805C33.6003 18.3922 33.6627 18.2071 33.782 18.044C33.9013 17.8809 34.0732 17.7455 34.2802 17.6518L38.6618 15.6605L5.57553 0.149064L0.706531 2.35203C0.500237 2.44646 0.328951 2.58192 0.209781 2.74488C0.0906115 2.90784 0.0277143 3.0926 0.0273781 3.28072V9.96735Z" fill="var(--fill-0, #2EEDAA)"/>
<path id="Vector_5" d="M5.57553 0.149064L0.706531 2.35203C0.488963 2.45704 0.311156 2.60623 0.191697 2.78398L33.7928 18.0276C33.9102 17.8694 34.0783 17.7383 34.2802 17.6475L38.6618 15.6562L5.57553 0.149064Z" fill="var(--fill-0, #2EEDAA)"/>
<path id="Vector_6" d="M14.5796 17.3408L19.0324 19.371C19.3943 19.5552 19.696 19.8042 19.913 20.0976C20.1299 20.3911 20.2561 20.7208 20.2811 21.0599V21.859C20.2811 22.481 19.7335 22.7229 19.0543 22.4249L14.5742 20.3817C14.2143 20.1965 13.9147 19.9472 13.6997 19.6538C13.4847 19.3604 13.3602 19.0312 13.3364 18.6928V17.9066C13.3419 17.2846 13.895 17.0298 14.5796 17.3408Z" fill="var(--fill-0, #37474F)"/>
<path id="Vector_7" d="M16.4801 3.63492V6.41237L14.4427 7.34107V3.10361C14.4427 2.88332 14.6399 2.79693 14.8754 2.90492L16.4801 3.63492Z" fill="var(--fill-0, #263238)"/>
<path id="Vector_8" d="M27.1273 6.58085V11.7643L25.6157 12.4554L24.597 11.9932V7.75143C24.5893 7.63285 24.546 7.5174 24.4708 7.41454C24.3956 7.31168 24.2906 7.22433 24.1643 7.15966L16.4582 3.65219L14.8535 2.92221C14.618 2.81422 14.4208 2.9006 14.4208 3.1209V7.35836L13.435 6.87457V1.71273C13.435 1.69113 13.435 1.66521 13.435 1.64362C13.4557 1.53663 13.505 1.43433 13.5796 1.34349C13.6541 1.25264 13.7523 1.17532 13.8676 1.11663L14.5084 0.822909C14.6437 0.769673 14.7927 0.741957 14.9439 0.741957C15.095 0.741957 15.244 0.769673 15.3793 0.822909L26.722 6.00634C26.8398 6.07208 26.9373 6.15782 27.0075 6.25725C27.0776 6.35668 27.1186 6.46727 27.1273 6.58085Z" fill="var(--fill-0, #455A64)"/>
<path id="Vector_9" d="M25.6376 7.27196V12.4554L24.6189 11.9932V7.75143C24.6112 7.63285 24.5679 7.5174 24.4927 7.41454C24.4175 7.31167 24.3125 7.22433 24.1862 7.15966L16.4801 3.65219L14.8754 2.9222C14.6399 2.81422 14.4427 2.9006 14.4427 3.1209V7.35835L13.435 6.87457V1.71273C13.435 1.69113 13.435 1.66521 13.435 1.64361C13.4733 1.47515 13.654 1.41468 13.8676 1.51403L25.2104 6.69747C25.3319 6.76161 25.4335 6.8466 25.5075 6.94609C25.5815 7.04558 25.6259 7.15699 25.6376 7.27196Z" fill="var(--fill-0, #37474F)"/>
</g>
</svg>
