<svg preserveAspectRatio="none" width="100%" height="100%" overflow="visible" style="display: block;" viewBox="0 0 39.9984 40.0004" fill="none" xmlns="http://www.w3.org/2000/svg">
<g id="freepik--coin--inject-73">
<path id="Vector" d="M0.000185004 19.9896C-0.00354835 20.864 0.0492258 21.7378 0.158177 22.6055C0.651299 26.4635 2.26294 30.0929 4.7943 33.0458C7.32566 35.9988 10.666 38.1462 14.4034 39.2232C16.1722 39.7303 18.0024 39.9918 19.8425 40.0002C21.2415 40.0067 22.6373 39.867 24.0072 39.5832C26.6183 39.0334 29.0928 37.9664 31.285 36.4451C33.4771 34.9238 35.3424 32.9789 36.7709 30.7253C36.9548 30.4352 37.1309 30.1373 37.3019 29.8395C38.0926 28.4355 38.7093 26.9404 39.1382 25.3872C39.2833 24.8692 39.3972 24.3253 39.5112 23.7814C39.6252 23.2375 39.6951 22.6858 39.7521 22.1237C39.8194 21.4762 39.8539 20.821 39.8557 20.1579C39.8602 19.3591 39.8161 18.5607 39.7236 17.7673C39.6614 17.2182 39.5751 16.6769 39.4646 16.1433C38.6884 12.2943 36.7933 8.76 34.0168 5.98353C31.2404 3.20705 27.7061 1.31195 23.857 0.535789C23.3235 0.427008 22.7796 0.341537 22.2305 0.276786C21.4928 0.190726 20.7509 0.146625 20.0082 0.144694C19.2963 0.14 18.5847 0.174586 17.8766 0.248295C17.3172 0.302686 16.7629 0.385567 16.219 0.489169C15.6751 0.59277 15.1389 0.714502 14.6106 0.859544C13.0569 1.28823 11.5617 1.90581 10.1583 2.69847C9.85786 2.86682 9.56001 3.04294 9.26993 3.21648C6.07506 5.24514 3.51951 8.13652 1.89868 11.5564C1.23015 12.9678 0.731948 14.4537 0.41459 15.9828C0.14254 17.3011 0.00370723 18.6434 0.000185004 19.9896Z" fill="var(--fill-0, #2EEDAA)"/>
<path id="Vector_2" opacity="0.1" d="M0.000185004 19.9896C-0.00354835 20.864 0.0492258 21.7378 0.158177 22.6055C0.651299 26.4635 2.26294 30.0929 4.7943 33.0458C7.32566 35.9988 10.666 38.1462 14.4034 39.2232C16.1722 39.7303 18.0024 39.9918 19.8425 40.0002C21.2415 40.0067 22.6373 39.867 24.0072 39.5832C26.6183 39.0334 29.0928 37.9664 31.285 36.4451C33.4771 34.9238 35.3424 32.9789 36.7709 30.7253C36.9548 30.4352 37.1309 30.1373 37.3019 29.8395C38.0926 28.4355 38.7093 26.9404 39.1382 25.3872C39.2833 24.8692 39.3972 24.3253 39.5112 23.7814C39.6252 23.2375 39.6951 22.6858 39.7521 22.1237C39.8194 21.4762 39.8539 20.821 39.8557 20.1579C39.8602 19.3591 39.8161 18.5607 39.7236 17.7673C39.6614 17.2182 39.5751 16.6769 39.4646 16.1433C38.6884 12.2943 36.7933 8.76 34.0168 5.98353C31.2404 3.20705 27.7061 1.31195 23.857 0.535789C23.3235 0.427008 22.7796 0.341537 22.2305 0.276786C21.4928 0.190726 20.7509 0.146625 20.0082 0.144694C19.2963 0.14 18.5847 0.174586 17.8766 0.248295C17.3172 0.302686 16.7629 0.385567 16.219 0.489169C15.6751 0.59277 15.1389 0.714502 14.6106 0.859544C13.0569 1.28823 11.5617 1.90581 10.1583 2.69847C9.85786 2.86682 9.56001 3.04294 9.26993 3.21648C6.07506 5.24514 3.51951 8.13652 1.89868 11.5564C1.23015 12.9678 0.731948 14.4537 0.41459 15.9828C0.14254 17.3011 0.00370723 18.6434 0.000185004 19.9896Z" fill="var(--fill-0, white)"/>
<path id="Vector_3" opacity="0.05" d="M39.0761 14.5505C39.2263 15.0685 39.3584 15.6072 39.4672 16.1511C39.576 16.695 39.6615 17.226 39.7262 17.7751C39.8187 18.5685 39.8628 19.3669 39.8583 20.1657C39.8583 20.8287 39.8238 21.484 39.7547 22.1315C39.6977 22.6944 39.6174 23.2469 39.5138 23.7891C39.4102 24.333 39.2859 24.8666 39.1409 25.3949C38.7099 26.9429 38.0924 28.4327 37.302 29.8317C37.131 30.1295 36.9549 30.4274 36.771 30.7175C34.9694 33.574 32.4697 35.9245 29.5079 37.5473C26.5461 39.17 23.2197 40.0115 19.8425 39.9924C19.1154 39.9877 18.3892 39.9436 17.6669 39.8603L39.0761 14.5505Z" fill="var(--fill-0, black)"/>
<path id="Vector_4" opacity="0.05" d="M38.7679 26.5783C38.3789 27.7049 37.8882 28.7938 37.3019 29.8314C37.131 30.1293 36.9549 30.4271 36.771 30.7172C34.9607 33.5729 32.4557 35.9228 29.4904 37.5471L38.7679 26.5783Z" fill="var(--fill-0, black)"/>
<path id="Vector_5" opacity="0.15" d="M36.3514 8.78245C36.9929 9.7131 37.5528 10.6975 38.0245 11.7247L14.7142 39.306L14.3982 39.2206C13.4221 38.9346 12.4696 38.5735 11.5492 38.1405L36.3514 8.78245Z" fill="var(--fill-0, white)"/>
<path id="Vector_6" opacity="0.15" d="M28.7288 2.18823C29.7739 2.70524 30.7722 3.31185 31.7125 4.00125L6.04787 34.3617C5.21161 33.5484 4.44809 32.6636 3.76605 31.7172L28.7288 2.18823Z" fill="var(--fill-0, white)"/>
<path id="Vector_7" opacity="0.15" d="M25.8177 1.03018C26.4341 1.22184 27.0384 1.44113 27.6307 1.68805L3.0901 30.7172C2.74822 30.1759 2.42446 29.6216 2.13438 29.0466L25.8177 1.03018Z" fill="var(--fill-0, white)"/>
<path id="Vector_8" opacity="0.15" d="M0.0571629 18.6324C0.0830633 18.2646 0.121913 17.8994 0.165944 17.5394C0.181484 17.4177 0.194434 17.2959 0.212565 17.1768C0.230695 17.0576 0.248826 16.9178 0.269546 16.8064C0.316166 16.5474 0.362787 16.2625 0.417178 15.9931C1.20446 12.2228 3.06971 8.76227 5.78632 6.03186C6.83988 4.96948 8.00925 4.0286 9.27251 3.22685C9.56259 3.04296 9.86045 2.86684 10.1609 2.70884C11.5642 1.91619 13.0595 1.2986 14.6132 0.869919C14.81 0.815529 15.0069 0.768907 15.2063 0.719697L0.0571629 18.6324Z" fill="var(--fill-0, white)"/>
<path id="Vector_9" d="M5.07928 20.0724C5.07875 23.8385 6.50952 27.464 9.08183 30.2147C11.6541 32.9655 15.1757 34.6358 18.9334 34.8874C19.2597 34.9081 19.5964 34.9211 19.9305 34.9211C23.835 34.8695 27.5621 33.2823 30.305 30.503C33.0478 27.7237 34.5857 23.976 34.5857 20.0711C34.5857 16.1663 33.0478 12.4186 30.305 9.63926C27.5621 6.85995 23.835 5.27272 19.9305 5.22115C19.5964 5.22115 19.2597 5.22115 18.9334 5.25482C15.1757 5.50769 11.6545 7.17874 9.08234 9.92976C6.51021 12.6808 5.07932 16.3063 5.07928 20.0724Z" fill="var(--fill-0, #2EEDAA)"/>
<path id="Vector_10" opacity="0.4" d="M5.07928 20.0724C5.07875 23.8385 6.50952 27.464 9.08183 30.2147C11.6541 32.9655 15.1757 34.6358 18.9334 34.8874C19.2597 34.9081 19.5964 34.9211 19.9305 34.9211C23.835 34.8695 27.5621 33.2823 30.305 30.503C33.0478 27.7237 34.5857 23.976 34.5857 20.0711C34.5857 16.1663 33.0478 12.4186 30.305 9.63926C27.5621 6.85995 23.835 5.27272 19.9305 5.22115C19.5964 5.22115 19.2597 5.22115 18.9334 5.25482C15.1757 5.50769 11.6545 7.17874 9.08234 9.92976C6.51021 12.6808 5.07932 16.3063 5.07928 20.0724Z" fill="var(--fill-0, black)"/>
<path id="Vector_11" d="M5.73969 20.0724C5.73969 20.3314 5.73969 20.5904 5.76041 20.8287C5.94493 24.2902 7.3905 27.5644 9.82415 30.0329C12.2578 32.5013 15.5111 33.9933 18.9696 34.227L19.1638 34.2399C19.4229 34.2399 19.6663 34.2607 19.9201 34.2607C23.4765 34.2675 26.9055 32.937 29.5266 30.5333C32.1477 28.1296 33.7692 24.8283 34.0695 21.2846C34.1058 20.8831 34.1213 20.4791 34.1213 20.0673C34.1213 19.6554 34.1084 19.3187 34.0799 18.9509C34.022 18.1885 33.9007 17.4322 33.7173 16.6898C33.0965 14.1709 31.798 11.8698 29.9626 10.0363C28.1272 8.2027 25.8249 6.90652 23.3053 6.28826C22.563 6.10481 21.8067 5.98353 21.0442 5.92565C20.6764 5.89716 20.3035 5.88421 19.9279 5.88421C19.6093 5.88421 19.2908 5.88421 18.9774 5.9153C18.8893 5.9153 18.8012 5.91529 18.7184 5.93601C16.6512 6.10885 14.6479 6.73683 12.8519 7.77494C10.6902 9.01814 8.89493 10.8099 7.64748 12.9692C6.40004 15.1284 5.74462 17.5787 5.74746 20.0724H5.73969Z" fill="var(--fill-0, #2EEDAA)"/>
<path id="Vector_12" opacity="0.5" d="M5.73969 20.0724C5.73969 20.3314 5.73969 20.5904 5.76041 20.8287C5.94493 24.2902 7.3905 27.5644 9.82415 30.0329C12.2578 32.5013 15.5111 33.9933 18.9696 34.227L19.1638 34.2399C19.4229 34.2399 19.6663 34.2607 19.9201 34.2607C23.4765 34.2675 26.9055 32.937 29.5266 30.5333C32.1477 28.1296 33.7692 24.8283 34.0695 21.2846C34.1058 20.8831 34.1213 20.4791 34.1213 20.0673C34.1213 19.6554 34.1084 19.3187 34.0799 18.9509C34.022 18.1885 33.9007 17.4322 33.7173 16.6898C33.0965 14.1709 31.798 11.8698 29.9626 10.0363C28.1272 8.2027 25.8249 6.90652 23.3053 6.28826C22.563 6.10481 21.8067 5.98353 21.0442 5.92565C20.6764 5.89716 20.3035 5.88421 19.9279 5.88421C19.6093 5.88421 19.2908 5.88421 18.9774 5.9153C18.8893 5.9153 18.8012 5.91529 18.7184 5.93601C16.6512 6.10885 14.6479 6.73683 12.8519 7.77494C10.6902 9.01814 8.89493 10.8099 7.64748 12.9692C6.40004 15.1284 5.74462 17.5787 5.74746 20.0724H5.73969Z" fill="var(--fill-0, black)"/>
<path id="Vector_13" d="M29.9255 30.1399C32.3193 27.7772 33.7892 24.6363 34.0695 21.2846C34.1058 20.8831 34.1239 20.4791 34.1239 20.0673C34.1239 19.6554 34.1084 19.3187 34.0799 18.9509C34.022 18.1885 33.9007 17.4322 33.7173 16.6898C33.0965 14.1709 31.798 11.8698 29.9626 10.0363C28.1272 8.2027 25.8249 6.90652 23.3053 6.28826C22.563 6.10481 21.8067 5.98353 21.0442 5.92565C20.6764 5.89716 20.3035 5.88421 19.9279 5.88421C19.6093 5.88421 19.2908 5.88421 18.9774 5.9153C18.8893 5.9153 18.8013 5.91529 18.7184 5.93601C16.6512 6.10885 14.6479 6.73683 12.8519 7.77494C12.2294 8.13952 11.6355 8.55079 11.0752 9.00521C9.74909 10.3197 8.69718 11.8845 7.98048 13.6086C7.26377 15.3328 6.89653 17.1822 6.90004 19.0494C6.90004 19.3084 6.90004 19.5544 6.92335 19.8057C7.10677 23.2675 8.55198 26.5423 10.9859 29.011C13.4197 31.4797 16.6736 32.9713 20.1325 33.2039H20.3242C20.5832 33.2169 20.8293 33.2246 21.0831 33.2246C24.298 33.2279 27.4174 32.1311 29.9229 30.1166L29.9255 30.1399Z" fill="var(--fill-0, #2EEDAA)"/>
<path id="Vector_14" opacity="0.25" d="M29.9255 30.1399C32.3193 27.7772 33.7892 24.6363 34.0695 21.2846C34.1058 20.8831 34.1239 20.4791 34.1239 20.0673C34.1239 19.6554 34.1084 19.3187 34.0799 18.9509C34.022 18.1885 33.9007 17.4322 33.7173 16.6898C33.0965 14.1709 31.798 11.8698 29.9626 10.0363C28.1272 8.2027 25.8249 6.90652 23.3053 6.28826C22.563 6.10481 21.8067 5.98353 21.0442 5.92565C20.6764 5.89716 20.3035 5.88421 19.9279 5.88421C19.6093 5.88421 19.2908 5.88421 18.9774 5.9153C18.8893 5.9153 18.8013 5.91529 18.7184 5.93601C16.6512 6.10885 14.6479 6.73683 12.8519 7.77494C12.2294 8.13952 11.6355 8.55079 11.0752 9.00521C9.74909 10.3197 8.69718 11.8845 7.98048 13.6086C7.26377 15.3328 6.89653 17.1822 6.90004 19.0494C6.90004 19.3084 6.90004 19.5544 6.92335 19.8057C7.10677 23.2675 8.55198 26.5423 10.9859 29.011C13.4197 31.4797 16.6736 32.9713 20.1325 33.2039H20.3242C20.5832 33.2169 20.8293 33.2246 21.0831 33.2246C24.298 33.2279 27.4174 32.1311 29.9229 30.1166L29.9255 30.1399Z" fill="var(--fill-0, black)"/>
<path id="Vector_15" d="M10.161 2.69845C18.7366 -1.74346 25.7012 0.566851 30.3632 3.33819C37.0973 7.8578 41.345 15.4285 39.0217 25.4338V25.4131C38.1348 28.7409 36.3897 31.7775 33.9608 34.2192C36.4687 31.7701 38.292 28.7074 39.2497 25.3354V25.3535C41.3916 17.0654 38.698 10.4841 34.2043 5.84017C29.3894 1.40084 21.2308 -2.98409 10.161 2.69845Z" fill="var(--fill-0, #F5F5F5)"/>
<path id="Vector_16" d="M17.7937 9.58517L17.7782 11.4966C17.7782 11.4966 15.8123 11.1495 13.5719 12.9185C13.4787 12.9937 13.3958 13.0662 13.3129 13.1387C12.8487 13.5407 12.4795 14.0409 12.2323 14.603C11.985 15.1652 11.8658 15.7753 11.8832 16.3892C11.8648 17.0086 11.9856 17.6243 12.2366 18.1908C12.4876 18.7574 12.8625 19.2605 13.3337 19.663C13.4088 19.7278 13.4968 19.7873 13.5719 19.8521L13.5953 19.8754L13.8543 20.0619C13.9325 20.1173 14.0138 20.1683 14.0977 20.2147C14.1303 20.2363 14.1641 20.2562 14.1987 20.2742C14.2603 20.3167 14.3252 20.354 14.393 20.3856C14.9577 20.687 15.5468 20.94 16.1542 21.1419C16.4521 21.2455 16.7603 21.3388 17.0685 21.4242C17.514 21.5511 17.9595 21.6677 18.3842 21.7765L18.9022 21.9034C20.1144 22.1961 20.9976 22.4343 21.557 22.7503C21.8708 22.8927 22.1235 23.1426 22.2693 23.4548C22.335 23.6196 22.3684 23.7954 22.3677 23.9728C22.3677 24.7162 21.7487 25.3171 20.0652 25.2678C18.2729 25.2005 17.2653 24.4908 17.0245 23.3978L12.1034 24.3199C12.8467 26.5732 14.8488 28.0444 17.9905 28.5831V31.0462L22.0414 31.1964V28.7333C23.743 28.5909 25.1494 28.1272 26.1077 27.3476L26.1336 27.3269C26.6311 26.9187 27.0275 26.401 27.2917 25.8142C27.5559 25.2274 27.6808 24.5874 27.6566 23.9443C27.6721 20.699 25.095 19.5413 22.3366 18.785C19.7595 18.0934 17.4674 17.9225 17.4725 16.3452C17.4725 15.3609 18.3739 14.9517 19.7 14.9983C21.816 15.0735 22.6397 16.3219 22.808 17.2284L27.9881 16.2882C27.8725 15.8234 27.6984 15.3753 27.4701 14.9543C27.0784 14.2513 26.5341 13.645 25.8772 13.1801C24.7272 12.3513 23.2665 11.8851 21.8005 11.6572V9.1863L17.7911 8.96356L17.7937 9.58517Z" fill="var(--fill-0, #2EEDAA)"/>
<path id="Vector_17" opacity="0.1" d="M17.7937 9.58517L17.7782 11.4966C17.7782 11.4966 15.8123 11.1495 13.5719 12.9185C13.4787 12.9937 13.3958 13.0662 13.3129 13.1387C12.8487 13.5407 12.4795 14.0409 12.2323 14.603C11.985 15.1652 11.8658 15.7753 11.8832 16.3892C11.8648 17.0086 11.9856 17.6243 12.2366 18.1908C12.4876 18.7574 12.8625 19.2605 13.3337 19.663C13.4088 19.7278 13.4968 19.7873 13.5719 19.8521L13.5953 19.8754L13.8543 20.0619C13.9325 20.1173 14.0138 20.1683 14.0977 20.2147C14.1303 20.2363 14.1641 20.2562 14.1987 20.2742C14.2603 20.3167 14.3252 20.354 14.393 20.3856C14.9577 20.687 15.5468 20.94 16.1542 21.1419C16.4521 21.2455 16.7603 21.3388 17.0685 21.4242C17.514 21.5511 17.9595 21.6677 18.3842 21.7765L18.9022 21.9034C20.1144 22.1961 20.9976 22.4343 21.557 22.7503C21.8708 22.8927 22.1235 23.1426 22.2693 23.4548C22.335 23.6196 22.3684 23.7954 22.3677 23.9728C22.3677 24.7162 21.7487 25.3171 20.0652 25.2678C18.2729 25.2005 17.2653 24.4908 17.0245 23.3978L12.1034 24.3199C12.8467 26.5732 14.8488 28.0444 17.9905 28.5831V31.0462L22.0414 31.1964V28.7333C23.743 28.5909 25.1494 28.1272 26.1077 27.3476L26.1336 27.3269C26.6311 26.9187 27.0275 26.401 27.2917 25.8142C27.5559 25.2274 27.6808 24.5874 27.6566 23.9443C27.6721 20.699 25.095 19.5413 22.3366 18.785C19.7595 18.0934 17.4674 17.9225 17.4725 16.3452C17.4725 15.3609 18.3739 14.9517 19.7 14.9983C21.816 15.0735 22.6397 16.3219 22.808 17.2284L27.9881 16.2882C27.8725 15.8234 27.6984 15.3753 27.4701 14.9543C27.0784 14.2513 26.5341 13.645 25.8772 13.1801C24.7272 12.3513 23.2665 11.8851 21.8005 11.6572V9.1863L17.7911 8.96356L17.7937 9.58517Z" fill="var(--fill-0, white)"/>
<path id="Vector_18" d="M27.6566 23.9365C27.6513 22.8429 27.2343 21.7914 26.4885 20.9916C25.7684 20.2146 24.7428 19.6966 23.6032 19.2926C22.4636 18.8885 21.2177 18.614 19.9953 18.2954C19.4053 18.1542 18.8342 17.9438 18.2936 17.6686C18.044 17.5481 17.8341 17.3587 17.6887 17.1229C17.5432 16.887 17.4682 16.6144 17.4726 16.3373C17.4907 16.9304 17.8766 17.3293 18.3868 17.5805C18.9421 17.8338 19.5242 18.0232 20.1222 18.1452C21.3579 18.396 22.5788 18.7151 23.7793 19.1009C24.9137 19.5179 25.9601 20.054 26.6568 20.8673C27.0096 21.2696 27.279 21.7379 27.4494 22.2452C27.6069 22.7946 27.6768 23.3653 27.6566 23.9365Z" fill="var(--fill-0, white)"/>
<path id="Vector_19" d="M17.8016 8.95572L21.425 9.46336L21.798 11.6494L21.8109 9.17846L17.8016 8.95572Z" fill="var(--fill-0, #FAFAFA)"/>
<path id="Vector_20" d="M17.9906 28.5752L18.3299 30.7561L22.0362 31.1886L17.988 31.0384L17.9906 28.5752Z" fill="var(--fill-0, #FAFAFA)"/>
<path id="Vector_21" opacity="0.15" d="M12.1035 24.3123C12.2382 24.708 12.4181 25.087 12.6396 25.4415L14.0538 23.9471L12.1035 24.3123Z" fill="var(--fill-0, white)"/>
<path id="Vector_22" opacity="0.15" d="M27.6515 23.8305C27.6655 23.2332 27.5514 22.6398 27.3168 22.0903C27.0823 21.5408 26.7327 21.0479 26.2917 20.6448L17.9906 29.4353V31.0386L20.7542 31.1422L22.0492 29.7721V28.736C22.4288 28.7041 22.8066 28.6531 23.1811 28.5832L27.6515 23.8305Z" fill="var(--fill-0, white)"/>
<path id="Vector_23" opacity="0.15" d="M11.9014 16.8813C11.9562 17.5697 12.1852 18.2329 12.567 18.8083L21.6632 9.16818L19.3011 9.03868L17.786 10.6445V11.4966C17.5235 11.4667 17.2585 11.4667 16.996 11.4966L11.9014 16.8813Z" fill="var(--fill-0, white)"/>
<path id="Vector_24" opacity="0.15" d="M13.5901 19.8806L13.8491 20.0671C13.9273 20.1225 14.0086 20.1735 14.0925 20.2199C14.1251 20.2415 14.1589 20.2613 14.1935 20.2794C14.2551 20.3219 14.32 20.3592 14.3878 20.3908C14.9525 20.6921 15.5416 20.9451 16.149 21.1471C16.2863 21.1937 16.4287 21.2326 16.5686 21.2766L19.5756 18.0934C18.3221 17.7386 17.4647 17.3009 17.4673 16.3374C17.4699 15.3739 18.3687 14.944 19.6948 14.9906C20.4673 14.9876 21.2203 15.2337 21.8419 15.6925L24.8049 12.5534C23.8505 12.1057 22.8357 11.8003 21.7927 11.6468V10.717L13.3492 19.676C13.4217 19.7381 13.5046 19.7977 13.5745 19.8573L13.5901 19.8806Z" fill="var(--fill-0, white)"/>
</g>
</svg>
