<svg width="40" height="40" viewBox="0 0 40 40" fill="none" xmlns="http://www.w3.org/2000/svg">
<path d="M0.000185004 19.9898C-0.00354835 20.8643 0.0492258 21.7381 0.158177 22.6057C0.651299 26.4638 2.26294 30.0931 4.7943 33.0461C7.32566 35.999 10.666 38.1464 14.4034 39.2234C16.1722 39.7306 18.0024 39.9921 19.8425 40.0004C21.2415 40.007 22.6373 39.8672 24.0072 39.5834C26.6183 39.0337 29.0928 37.9667 31.285 36.4454C33.4771 34.9241 35.3424 32.9792 36.7709 30.7255C36.9548 30.4354 37.1309 30.1376 37.3019 29.8397C38.0926 28.4358 38.7093 26.9406 39.1382 25.3874C39.2833 24.8694 39.3972 24.3255 39.5112 23.7816C39.6252 23.2377 39.6951 22.686 39.7521 22.124C39.8194 21.4765 39.8539 20.8212 39.8557 20.1582C39.8602 19.3594 39.8161 18.561 39.7236 17.7676C39.6614 17.2185 39.5751 16.6772 39.4646 16.1436C38.6884 12.2946 36.7933 8.76026 34.0168 5.98379C31.2404 3.20731 27.7061 1.31221 23.857 0.536047C23.3235 0.427265 22.7796 0.341794 22.2305 0.277043C21.4928 0.190983 20.7509 0.146882 20.0082 0.144952C19.2963 0.140258 18.5847 0.174844 17.8766 0.248553C17.3172 0.302944 16.7629 0.385825 16.219 0.489426C15.6751 0.593028 15.1389 0.71476 14.6106 0.859802C13.0569 1.28849 11.5617 1.90607 10.1583 2.69873C9.85786 2.86708 9.56001 3.0432 9.26993 3.21673C6.07506 5.2454 3.51951 8.13678 1.89868 11.5567C1.23015 12.968 0.731948 14.4539 0.41459 15.983C0.14254 17.3014 0.00370723 18.6437 0.000185004 19.9898Z" fill="#2EEDAA"/>
<path opacity="0.1" d="M0.000185004 19.9898C-0.00354835 20.8643 0.0492258 21.7381 0.158177 22.6057C0.651299 26.4638 2.26294 30.0931 4.7943 33.0461C7.32566 35.999 10.666 38.1464 14.4034 39.2234C16.1722 39.7306 18.0024 39.9921 19.8425 40.0004C21.2415 40.007 22.6373 39.8672 24.0072 39.5834C26.6183 39.0337 29.0928 37.9667 31.285 36.4454C33.4771 34.9241 35.3424 32.9792 36.7709 30.7255C36.9548 30.4354 37.1309 30.1376 37.3019 29.8397C38.0926 28.4358 38.7093 26.9406 39.1382 25.3874C39.2833 24.8694 39.3972 24.3255 39.5112 23.7816C39.6252 23.2377 39.6951 22.686 39.7521 22.124C39.8194 21.4765 39.8539 20.8212 39.8557 20.1582C39.8602 19.3594 39.8161 18.561 39.7236 17.7676C39.6614 17.2185 39.5751 16.6772 39.4646 16.1436C38.6884 12.2946 36.7933 8.76026 34.0168 5.98379C31.2404 3.20731 27.7061 1.31221 23.857 0.536047C23.3235 0.427265 22.7796 0.341794 22.2305 0.277043C21.4928 0.190983 20.7509 0.146882 20.0082 0.144952C19.2963 0.140258 18.5847 0.174844 17.8766 0.248553C17.3172 0.302944 16.7629 0.385825 16.219 0.489426C15.6751 0.593028 15.1389 0.71476 14.6106 0.859802C13.0569 1.28849 11.5617 1.90607 10.1583 2.69873C9.85786 2.86708 9.56001 3.0432 9.26993 3.21673C6.07506 5.2454 3.51951 8.13678 1.89868 11.5567C1.23015 12.968 0.731948 14.4539 0.41459 15.983C0.14254 17.3014 0.00370723 18.6437 0.000185004 19.9898Z" fill="white"/>
<path opacity="0.05" d="M39.0762 14.5508C39.2264 15.0688 39.3585 15.6075 39.4673 16.1514C39.5761 16.6953 39.6615 17.2263 39.7263 17.7754C39.8188 18.5688 39.8629 19.3672 39.8584 20.166C39.8584 20.829 39.8238 21.4843 39.7548 22.1318C39.6978 22.6947 39.6175 23.2473 39.5139 23.7894C39.4103 24.3333 39.286 24.8669 39.1409 25.3953C38.71 26.9432 38.0925 28.4331 37.302 29.832C37.1311 30.1299 36.9549 30.4277 36.771 30.7178C34.9694 33.5743 32.4698 35.9248 29.508 37.5476C26.5461 39.1703 23.2197 40.0118 19.8426 39.9927C19.1155 39.988 18.3892 39.944 17.6669 39.8606L39.0762 14.5508Z" fill="black"/>
<path opacity="0.05" d="M38.7679 26.5781C38.379 27.7047 37.8883 28.7936 37.302 29.8312C37.131 30.1291 36.9549 30.4269 36.771 30.717C34.9607 33.5727 32.4558 35.9226 29.4904 37.5469L38.7679 26.5781Z" fill="black"/>
<path opacity="0.15" d="M36.3514 8.78223C36.993 9.71287 37.5528 10.6973 38.0245 11.7245L14.7142 39.3058L14.3982 39.2203C13.4221 38.9344 12.4696 38.5733 11.5492 38.1403L36.3514 8.78223Z" fill="white"/>
<path opacity="0.15" d="M28.7288 2.18848C29.7739 2.70549 30.7722 3.3121 31.7125 4.0015L6.04787 34.3619C5.21161 33.5487 4.4481 32.6638 3.76605 31.7175L28.7288 2.18848Z" fill="white"/>
<path opacity="0.15" d="M25.8177 1.03027C26.4341 1.22194 27.0385 1.44123 27.6307 1.68814L3.09012 30.7173C2.74824 30.176 2.42448 29.6217 2.1344 29.0467L25.8177 1.03027Z" fill="white"/>
<path opacity="0.15" d="M0.0571899 18.6324C0.0830903 18.2646 0.12194 17.8994 0.165971 17.5394C0.181511 17.4177 0.194461 17.296 0.212592 17.1768C0.230722 17.0577 0.248853 16.9178 0.269573 16.8064C0.316193 16.5474 0.362814 16.2625 0.417205 15.9932C1.20449 12.2229 3.06974 8.7623 5.78635 6.03189C6.83991 4.96951 8.00928 4.02863 9.27254 3.22688C9.56262 3.04299 9.86048 2.86687 10.1609 2.70887C11.5643 1.91622 13.0595 1.29863 14.6132 0.869949C14.81 0.815558 15.0069 0.768937 15.2063 0.719727L0.0571899 18.6324Z" fill="white"/>
<path d="M5.07928 20.072C5.07875 23.838 6.50952 27.4636 9.08183 30.2143C11.6541 32.965 15.1757 34.6353 18.9334 34.887C19.2597 34.9077 19.5964 34.9206 19.9306 34.9206C23.835 34.8691 27.5621 33.2818 30.305 30.5025C33.0478 27.7232 34.5857 23.9755 34.5857 20.0707C34.5857 16.1658 33.0478 12.4181 30.305 9.63881C27.5621 6.85951 23.835 5.27227 19.9306 5.2207C19.5964 5.2207 19.2597 5.2207 18.9334 5.25437C15.1757 5.50725 11.6545 7.1783 9.08235 9.92931C6.51021 12.6803 5.07932 16.3058 5.07928 20.072Z" fill="#2EEDAA"/>
<path opacity="0.4" d="M5.07928 20.072C5.07875 23.838 6.50952 27.4636 9.08183 30.2143C11.6541 32.965 15.1757 34.6353 18.9334 34.887C19.2597 34.9077 19.5964 34.9206 19.9306 34.9206C23.835 34.8691 27.5621 33.2818 30.305 30.5025C33.0478 27.7232 34.5857 23.9755 34.5857 20.0707C34.5857 16.1658 33.0478 12.4181 30.305 9.63881C27.5621 6.85951 23.835 5.27227 19.9306 5.2207C19.5964 5.2207 19.2597 5.2207 18.9334 5.25437C15.1757 5.50725 11.6545 7.1783 9.08235 9.92931C6.51021 12.6803 5.07932 16.3058 5.07928 20.072Z" fill="black"/>
<path d="M5.73969 20.072C5.73969 20.331 5.73969 20.59 5.76041 20.8283C5.94492 24.2898 7.3905 27.5639 9.82415 30.0324C12.2578 32.5009 15.5111 33.9929 18.9696 34.2266L19.1638 34.2395C19.4228 34.2395 19.6663 34.2602 19.9201 34.2602C23.4765 34.2671 26.9055 32.9366 29.5266 30.5329C32.1477 28.1291 33.7692 24.8278 34.0695 21.2841C34.1058 20.8827 34.1213 20.4786 34.1213 20.0668C34.1213 19.655 34.1084 19.3183 34.0799 18.9505C34.022 18.1881 33.9007 17.4317 33.7173 16.6894C33.0965 14.1704 31.798 11.8694 29.9626 10.0358C28.1272 8.20227 25.8249 6.9061 23.3053 6.28783C22.563 6.10439 21.8067 5.9831 21.0442 5.92523C20.6764 5.89674 20.3035 5.88379 19.9279 5.88379C19.6093 5.88379 19.2908 5.88379 18.9774 5.91487C18.8893 5.91487 18.8012 5.91487 18.7184 5.93559C16.6512 6.10842 14.6479 6.7364 12.8519 7.77451C10.6902 9.01772 8.89493 10.8095 7.64748 12.9688C6.40003 15.128 5.74462 17.5783 5.74745 20.072H5.73969Z" fill="#2EEDAA"/>
<path opacity="0.5" d="M5.73969 20.072C5.73969 20.331 5.73969 20.59 5.76041 20.8283C5.94492 24.2898 7.3905 27.5639 9.82415 30.0324C12.2578 32.5009 15.5111 33.9929 18.9696 34.2266L19.1638 34.2395C19.4228 34.2395 19.6663 34.2602 19.9201 34.2602C23.4765 34.2671 26.9055 32.9366 29.5266 30.5329C32.1477 28.1291 33.7692 24.8278 34.0695 21.2841C34.1058 20.8827 34.1213 20.4786 34.1213 20.0668C34.1213 19.655 34.1084 19.3183 34.0799 18.9505C34.022 18.1881 33.9007 17.4317 33.7173 16.6894C33.0965 14.1704 31.798 11.8694 29.9626 10.0358C28.1272 8.20227 25.8249 6.9061 23.3053 6.28783C22.563 6.10439 21.8067 5.9831 21.0442 5.92523C20.6764 5.89674 20.3035 5.88379 19.9279 5.88379C19.6093 5.88379 19.2908 5.88379 18.9774 5.91487C18.8893 5.91487 18.8012 5.91487 18.7184 5.93559C16.6512 6.10842 14.6479 6.7364 12.8519 7.77451C10.6902 9.01772 8.89493 10.8095 7.64748 12.9688C6.40003 15.128 5.74462 17.5783 5.74745 20.072H5.73969Z" fill="black"/>
<path d="M29.9255 30.1395C32.3193 27.7768 33.7892 24.6359 34.0695 21.2841C34.1058 20.8827 34.1239 20.4786 34.1239 20.0668C34.1239 19.655 34.1084 19.3183 34.0799 18.9505C34.022 18.1881 33.9007 17.4317 33.7173 16.6894C33.0965 14.1704 31.798 11.8694 29.9626 10.0358C28.1273 8.20227 25.8249 6.9061 23.3053 6.28783C22.563 6.10439 21.8067 5.9831 21.0442 5.92523C20.6765 5.89674 20.3035 5.88379 19.9279 5.88379C19.6094 5.88379 19.2908 5.88379 18.9774 5.91487C18.8893 5.91487 18.8013 5.91487 18.7184 5.93559C16.6512 6.10842 14.6479 6.7364 12.852 7.77451C12.2294 8.1391 11.6355 8.55037 11.0752 9.00478C9.74909 10.3193 8.69719 11.884 7.98048 13.6082C7.26377 15.3324 6.89653 17.1817 6.90005 19.0489C6.90005 19.3079 6.90005 19.554 6.92336 19.8052C7.10677 23.2671 8.55199 26.5419 10.9859 29.0106C13.4197 31.4793 16.6736 32.9709 20.1325 33.2035H20.3242C20.5832 33.2164 20.8293 33.2242 21.0831 33.2242C24.298 33.2275 27.4174 32.1307 29.9229 30.1162L29.9255 30.1395Z" fill="#2EEDAA"/>
<path opacity="0.25" d="M29.9255 30.1395C32.3193 27.7768 33.7892 24.6359 34.0695 21.2841C34.1058 20.8827 34.1239 20.4786 34.1239 20.0668C34.1239 19.655 34.1084 19.3183 34.0799 18.9505C34.022 18.1881 33.9007 17.4317 33.7173 16.6894C33.0965 14.1704 31.798 11.8694 29.9626 10.0358C28.1273 8.20227 25.8249 6.9061 23.3053 6.28783C22.563 6.10439 21.8067 5.9831 21.0442 5.92523C20.6765 5.89674 20.3035 5.88379 19.9279 5.88379C19.6094 5.88379 19.2908 5.88379 18.9774 5.91487C18.8893 5.91487 18.8013 5.91487 18.7184 5.93559C16.6512 6.10842 14.6479 6.7364 12.852 7.77451C12.2294 8.1391 11.6355 8.55037 11.0752 9.00478C9.74909 10.3193 8.69719 11.884 7.98048 13.6082C7.26377 15.3324 6.89653 17.1817 6.90005 19.0489C6.90005 19.3079 6.90005 19.554 6.92336 19.8052C7.10677 23.2671 8.55199 26.5419 10.9859 29.0106C13.4197 31.4793 16.6736 32.9709 20.1325 33.2035H20.3242C20.5832 33.2164 20.8293 33.2242 21.0831 33.2242C24.298 33.2275 27.4174 32.1307 29.9229 30.1162L29.9255 30.1395Z" fill="black"/>
<path d="M10.161 2.69835C18.7366 -1.74356 25.7012 0.56675 30.3633 3.33809C37.0974 7.8577 41.345 15.4284 39.0218 25.4337V25.413C38.1349 28.7408 36.3897 31.7774 33.9609 34.2191C36.4687 31.77 38.2921 28.7073 39.2497 25.3353V25.3534C41.3917 17.0653 38.698 10.484 34.2043 5.84006C29.3894 1.40074 21.2308 -2.98419 10.161 2.69835Z" fill="#F5F5F5"/>
<path d="M17.7938 9.58548L17.7782 11.4969C17.7782 11.4969 15.8124 11.1499 13.572 12.9189C13.4788 12.994 13.3959 13.0665 13.313 13.139C12.8487 13.541 12.4796 14.0412 12.2323 14.6034C11.9851 15.1655 11.8659 15.7756 11.8833 16.3895C11.8649 17.0089 11.9857 17.6246 12.2367 18.1911C12.4877 18.7577 12.8626 19.2608 13.3337 19.6633C13.4088 19.7281 13.4969 19.7876 13.572 19.8524L13.5953 19.8757L13.8543 20.0622C13.9326 20.1176 14.0138 20.1686 14.0978 20.215C14.1304 20.2366 14.1641 20.2565 14.1988 20.2746C14.2603 20.317 14.3253 20.3543 14.393 20.3859C14.9577 20.6873 15.5469 20.9403 16.1543 21.1422C16.4521 21.2458 16.7603 21.3391 17.0686 21.4245C17.514 21.5514 17.9595 21.668 18.3843 21.7768L18.9023 21.9037C20.1144 22.1964 20.9976 22.4346 21.5571 22.7506C21.8709 22.893 22.1235 23.1429 22.2693 23.4551C22.3351 23.6199 22.3685 23.7957 22.3678 23.9731C22.3678 24.7165 21.7487 25.3174 20.0652 25.2681C18.2729 25.2008 17.2654 24.4911 17.0245 23.3981L12.1035 24.3202C12.8468 26.5735 14.8489 28.0447 17.9906 28.5834V31.0465L22.0414 31.1967V28.7336C23.7431 28.5912 25.1495 28.1275 26.1078 27.3479L26.1337 27.3272C26.6312 26.919 27.0275 26.4013 27.2917 25.8145C27.5559 25.2277 27.6808 24.5877 27.6566 23.9446C27.6722 20.6993 25.0951 19.5416 22.3367 18.7853C19.7596 18.0937 17.4674 17.9228 17.4726 16.3455C17.4726 15.3613 18.3739 14.952 19.7 14.9987C21.8161 15.0738 22.6397 16.3222 22.8081 17.2287L27.9881 16.2885C27.8726 15.8238 27.6985 15.3756 27.4701 14.9546C27.0785 14.2516 26.5342 13.6453 25.8773 13.1804C24.7273 12.3516 23.2665 11.8854 21.8005 11.6575V9.18661L17.7912 8.96387L17.7938 9.58548Z" fill="#2EEDAA"/>
<path opacity="0.1" d="M17.7938 9.58548L17.7782 11.4969C17.7782 11.4969 15.8124 11.1499 13.572 12.9189C13.4788 12.994 13.3959 13.0665 13.313 13.139C12.8487 13.541 12.4796 14.0412 12.2323 14.6034C11.9851 15.1655 11.8659 15.7756 11.8833 16.3895C11.8649 17.0089 11.9857 17.6246 12.2367 18.1911C12.4877 18.7577 12.8626 19.2608 13.3337 19.6633C13.4088 19.7281 13.4969 19.7876 13.572 19.8524L13.5953 19.8757L13.8543 20.0622C13.9326 20.1176 14.0138 20.1686 14.0978 20.215C14.1304 20.2366 14.1641 20.2565 14.1988 20.2746C14.2603 20.317 14.3253 20.3543 14.393 20.3859C14.9577 20.6873 15.5469 20.9403 16.1543 21.1422C16.4521 21.2458 16.7603 21.3391 17.0686 21.4245C17.514 21.5514 17.9595 21.668 18.3843 21.7768L18.9023 21.9037C20.1144 22.1964 20.9976 22.4346 21.5571 22.7506C21.8709 22.893 22.1235 23.1429 22.2693 23.4551C22.3351 23.6199 22.3685 23.7957 22.3678 23.9731C22.3678 24.7165 21.7487 25.3174 20.0652 25.2681C18.2729 25.2008 17.2654 24.4911 17.0245 23.3981L12.1035 24.3202C12.8468 26.5735 14.8489 28.0447 17.9906 28.5834V31.0465L22.0414 31.1967V28.7336C23.7431 28.5912 25.1495 28.1275 26.1078 27.3479L26.1337 27.3272C26.6312 26.919 27.0275 26.4013 27.2917 25.8145C27.5559 25.2277 27.6808 24.5877 27.6566 23.9446C27.6722 20.6993 25.0951 19.5416 22.3367 18.7853C19.7596 18.0937 17.4674 17.9228 17.4726 16.3455C17.4726 15.3613 18.3739 14.952 19.7 14.9987C21.8161 15.0738 22.6397 16.3222 22.8081 17.2287L27.9881 16.2885C27.8726 15.8238 27.6985 15.3756 27.4701 14.9546C27.0785 14.2516 26.5342 13.6453 25.8773 13.1804C24.7273 12.3516 23.2665 11.8854 21.8005 11.6575V9.18661L17.7912 8.96387L17.7938 9.58548Z" fill="white"/>
<path d="M27.6566 23.9361C27.6514 22.8425 27.2343 21.791 26.4885 20.9912C25.7685 20.2142 24.7428 19.6962 23.6032 19.2921C22.4636 18.8881 21.2178 18.6136 19.9953 18.295C19.4054 18.1538 18.8342 17.9434 18.2936 17.6682C18.0441 17.5477 17.8342 17.3583 17.6887 17.1225C17.5432 16.8866 17.4682 16.614 17.4726 16.3369C17.4907 16.93 17.8766 17.3289 18.3869 17.5801C18.9421 17.8334 19.5243 18.0228 20.1222 18.1448C21.3579 18.3956 22.5789 18.7147 23.7793 19.1005C24.9138 19.5175 25.9601 20.0536 26.6569 20.8669C27.0097 21.2692 27.2791 21.7375 27.4494 22.2448C27.6069 22.7942 27.6768 23.3649 27.6566 23.9361Z" fill="white"/>
<path d="M17.8016 8.95605L21.425 9.4637L21.798 11.6497L21.8109 9.1788L17.8016 8.95605Z" fill="#FAFAFA"/>
<path d="M17.9906 28.5752L18.3299 30.756L22.0363 31.1885L17.988 31.0383L17.9906 28.5752Z" fill="#FAFAFA"/>
<path opacity="0.15" d="M12.1035 24.3125C12.2382 24.7082 12.4181 25.0872 12.6397 25.4417L14.0538 23.9473L12.1035 24.3125Z" fill="white"/>
<path opacity="0.15" d="M27.6515 23.8303C27.6655 23.233 27.5514 22.6396 27.3169 22.09C27.0823 21.5405 26.7328 21.0476 26.2917 20.6445L17.9907 29.4351V31.0383L20.7542 31.1419L22.0492 29.7718V28.7358C22.4289 28.7038 22.8066 28.6528 23.1811 28.583L27.6515 23.8303Z" fill="white"/>
<path opacity="0.15" d="M11.9014 16.8817C11.9562 17.5701 12.1853 18.2332 12.5671 18.8087L21.6633 9.16856L19.3012 9.03906L17.786 10.6449V11.497C17.5235 11.4671 17.2585 11.4671 16.996 11.497L11.9014 16.8817Z" fill="white"/>
<path opacity="0.15" d="M13.5901 19.8803L13.8491 20.0668C13.9273 20.1223 14.0086 20.1733 14.0925 20.2196C14.1251 20.2412 14.1589 20.2611 14.1935 20.2792C14.2551 20.3217 14.32 20.359 14.3878 20.3906C14.9525 20.6919 15.5416 20.9449 16.149 21.1469C16.2863 21.1935 16.4287 21.2323 16.5686 21.2764L19.5756 18.0932C18.3221 17.7384 17.4647 17.3007 17.4673 16.3372C17.4699 15.3737 18.3687 14.9437 19.6948 14.9904C20.4673 14.9874 21.2203 15.2335 21.8419 15.6923L24.8049 12.5531C23.8505 12.1055 22.8356 11.8001 21.7927 11.6466V10.7168L13.3492 19.6757C13.4217 19.7379 13.5046 19.7975 13.5745 19.857L13.5901 19.8803Z" fill="white"/>
<path d="M7.18241 8.13425L7.51134 3.80371L7.84028 8.13425L12.1708 8.46319L7.84028 8.79471L7.51134 13.1227L7.18241 8.79471L2.85187 8.46319L7.18241 8.13425Z" fill="white"/>
<path d="M10.5779 11.6884L10.7385 9.58789L10.8965 11.6884L12.997 11.8464L10.8965 12.007L10.7385 14.1049L10.5779 12.007L8.47998 11.8464L10.5779 11.6884Z" fill="white"/>
</svg>
