<svg width="256" height="40" viewBox="0 0 256 40" fill="none" xmlns="http://www.w3.org/2000/svg">
<path d="M19.8484 25.606V14.3992L19.8562 14.394L19.8484 14.3888L0 0V11.2198L12.1189 20.0013L0 28.7828V40L19.8484 25.6138L19.8562 25.6086L19.8484 25.606Z" fill="#0C0D08"/>
<path d="M39.6997 25.606V14.3992L39.7075 14.394L39.6997 14.3888L19.8564 0V11.2198L31.9728 20.0013L19.8564 28.7828V40L39.6997 25.6138L39.7075 25.6086L39.6997 25.606Z" fill="#0C0D08"/>
<path d="M50.5934 36.5849H44.8643V3.00061H51.1116V14.0908C52.1481 13.0472 53.3817 12.2198 54.7406 11.6566C56.0995 11.0935 57.5567 10.8059 59.0276 10.8104C66.0031 10.8104 71.5223 16.2778 71.5223 23.9321C71.5223 31.5346 66.0031 37.002 59.0276 37.002C57.544 37.0091 56.074 36.7177 54.7052 36.1453C53.3364 35.5728 52.0967 34.731 51.0598 33.6698L50.5934 36.5849ZM58.3513 31.0138C62.2562 31.0138 65.4304 28.2542 65.4304 23.9321C65.4304 19.5582 62.2562 16.7986 58.3513 16.7986C54.3402 16.7986 51.1116 19.5582 51.1116 23.9321C51.1116 28.2542 54.3402 31.0138 58.3513 31.0138Z" fill="#0C0D08"/>
<path d="M85.7888 10.8105C92.9741 10.8105 98.9105 16.2779 98.9105 23.9323C98.9105 31.5348 92.9741 37.0022 85.7888 37.0022C78.4998 37.0022 72.6152 31.5348 72.6152 23.9323C72.6152 16.2779 78.4998 10.8105 85.7888 10.8105ZM85.7888 30.9103C89.546 30.9103 92.6554 28.2025 92.6554 23.8882C92.6554 19.6102 89.546 16.892 85.7888 16.892C81.9357 16.892 78.8133 19.5998 78.8133 23.8701C78.8133 28.2025 81.9357 30.9103 85.7888 30.9103Z" fill="#0C0D08"/>
<path d="M100.004 11.0723H106.199V24.8185C106.199 29.1405 108.073 31.014 111.511 31.014C115.937 31.014 118.487 27.2127 118.487 27.2127V11.0723H124.737V36.585H119.269L118.593 33.2009C117.565 34.417 116.279 35.389 114.829 36.0465C113.379 36.704 111.8 37.0305 110.208 37.0022C104.274 37.0022 100.004 32.4728 100.004 26.3291V11.0723Z" fill="#0C0D08"/>
<path d="M150.77 36.585H144.572V23.0487C144.572 18.6748 142.698 16.7988 139.262 16.7988C134.837 16.7988 132.284 20.4445 132.284 20.4445V36.585H126.037V11.0723H131.764L132.282 14.4563C134.355 12.0621 137.177 10.8105 140.561 10.8105C146.497 10.8105 150.767 15.3425 150.767 21.4862L150.77 36.585Z" fill="#0C0D08"/>
<path d="M172.272 3.00061H178.522V36.5849H172.793L172.324 33.6698C171.287 34.7308 170.048 35.5725 168.68 36.145C167.311 36.7174 165.842 37.0089 164.359 37.002C157.381 37.002 151.861 31.5346 151.861 23.9321C151.861 16.2778 157.381 10.8104 164.359 10.8104C165.829 10.8061 167.286 11.0938 168.644 11.6569C170.003 12.22 171.236 13.0474 172.272 14.0908V3.00061ZM165.035 16.7986C161.13 16.7986 157.953 19.5582 157.953 23.9321C157.953 28.2542 161.13 31.0138 165.035 31.0138C169.043 31.0138 172.272 28.2542 172.272 23.9321C172.272 19.5582 169.043 16.7986 165.035 16.7986Z" fill="#0C0D08"/>
<path d="M179.822 3.00061H186.07V36.5849H179.822V3.00061Z" fill="#0C0D08"/>
<path d="M213.041 27.4199C212.155 33.149 206.325 37.0073 200.285 37.0073C192.996 37.0073 187.111 31.5399 187.111 23.9374C187.111 16.2831 192.996 10.8157 200.285 10.8157C207.887 10.8157 213.041 15.5549 213.241 23.0538V25.4429H193.452C194.079 28.827 196.89 30.9102 200.275 30.9102C202.866 30.9102 205.273 29.6613 206.366 27.4199H213.041ZM206.115 20.4963C205.079 18.2575 202.941 16.9023 200.285 16.9023C197.577 16.9023 195.235 18.2575 194.089 20.4963H206.115Z" fill="#0C0D08"/>
<path d="M234.652 29.5031C234.652 34.0325 231.006 37.0019 225.018 37.0019C218.719 37.0019 214.5 32.8353 214.345 27.6297H220.592C220.851 29.7026 222.665 30.9101 225.124 30.9101C227.049 30.9101 228.404 30.2856 228.404 29.1403C228.404 26.3289 214.71 28.4096 214.71 18.7756C214.71 14.4017 218.615 10.8077 224.603 10.8077C230.382 10.8077 234.235 14.609 234.39 20.2319H228.088C227.723 18.0449 226.422 16.8996 224.391 16.8996C222.414 16.8996 220.903 17.6303 220.903 18.9311C220.903 22.6831 234.652 20.3925 234.652 29.5031Z" fill="#0C0D08"/>
<path d="M255.788 29.5031C255.788 34.0325 252.145 37.0019 246.156 37.0019C239.855 37.0019 235.639 32.8353 235.483 27.6297H241.731C241.99 29.7026 243.804 30.9101 246.26 30.9101C248.188 30.9101 249.541 30.2856 249.541 29.1403C249.541 26.3289 235.846 28.4096 235.846 18.7756C235.846 14.4017 239.751 10.8077 245.739 10.8077C251.52 10.8077 255.373 14.609 255.529 20.2319H249.23C248.864 18.0449 247.563 16.8996 245.532 16.8996C243.552 16.8996 242.044 17.6303 242.044 18.9311C242.044 22.6831 255.788 20.3925 255.788 29.5031Z" fill="#0C0D08"/>
</svg>
