<svg width="80" height="80" viewBox="0 0 80 80" fill="none" xmlns="http://www.w3.org/2000/svg">
<g clip-path="url(#clip0_1473_42368)">
<g filter="url(#filter0_f_1473_42368)">
<path d="M13.3173 -9.18051C13.3173 -5.90896 14.7674 -1.8256 -9.88458 -3.25684C-22.6986 -3.25684 -33.0864 -5.90896 -33.0864 -9.18051C-33.0864 -12.4521 -31.6363 -7.00153 -8.43447 -14.8121C4.37955 -14.8121 13.3173 -15.1042 13.3173 -9.18051Z" fill="url(#paint0_linear_1473_42368)"/>
</g>
<g filter="url(#filter1_f_1473_42368)">
<path d="M13.3173 -9.18051C13.3173 -5.90896 14.7674 -1.8256 -9.88458 -3.25684C-22.6986 -3.25684 -33.0864 -5.90896 -33.0864 -9.18051C-33.0864 -12.4521 -31.6363 -7.00153 -8.43447 -14.8121C4.37955 -14.8121 13.3173 -15.1042 13.3173 -9.18051Z" fill="url(#paint1_linear_1473_42368)"/>
</g>
<g clip-path="url(#clip1_1473_42368)">
<rect x="0.493652" y="0.494141" width="79.0123" height="79.0123" rx="9.87654" fill="#141C1C"/>
<line x1="19.6251" y1="-16.0732" x2="19.6251" y2="38.0884" stroke="white" stroke-opacity="0.12" stroke-width="0.318598"/>
<line x1="27.9088" y1="-16.0732" x2="27.9088" y2="38.0884" stroke="white" stroke-opacity="0.12" stroke-width="0.318598"/>
<line x1="36.192" y1="-16.0732" x2="36.192" y2="38.0884" stroke="white" stroke-opacity="0.12" stroke-width="0.318598"/>
<line x1="44.4757" y1="-16.0732" x2="44.4757" y2="38.0884" stroke="white" stroke-opacity="0.12" stroke-width="0.318598"/>
<line x1="52.7594" y1="-16.0732" x2="52.7594" y2="38.0884" stroke="white" stroke-opacity="0.12" stroke-width="0.318598"/>
<line x1="61.0431" y1="-16.0732" x2="61.0431" y2="38.0884" stroke="white" stroke-opacity="0.12" stroke-width="0.318598"/>
<line x1="1.62451" y1="8.61804" x2="83.1856" y2="8.61805" stroke="white" stroke-opacity="0.12" stroke-width="0.318598"/>
<line x1="-0.291992" y1="16.9012" x2="81.2691" y2="16.9012" stroke="white" stroke-opacity="0.12" stroke-width="0.318598"/>
<line y1="-0.159299" x2="54.1617" y2="-0.159299" transform="matrix(-4.37115e-08 -1 -1 4.37115e-08 19.4658 96.125)" stroke="white" stroke-opacity="0.12" stroke-width="0.318598"/>
<line y1="-0.159299" x2="54.1617" y2="-0.159299" transform="matrix(-4.37115e-08 -1 -1 4.37115e-08 27.7495 96.125)" stroke="white" stroke-opacity="0.12" stroke-width="0.318598"/>
<line y1="-0.159299" x2="54.1617" y2="-0.159299" transform="matrix(-4.37115e-08 -1 -1 4.37115e-08 36.0327 96.125)" stroke="white" stroke-opacity="0.12" stroke-width="0.318598"/>
<line y1="-0.159299" x2="54.1617" y2="-0.159299" transform="matrix(-4.37115e-08 -1 -1 4.37115e-08 44.3164 96.125)" stroke="white" stroke-opacity="0.12" stroke-width="0.318598"/>
<line y1="-0.159299" x2="54.1617" y2="-0.159299" transform="matrix(-4.37115e-08 -1 -1 4.37115e-08 52.6001 96.125)" stroke="white" stroke-opacity="0.12" stroke-width="0.318598"/>
<line y1="-0.159299" x2="54.1617" y2="-0.159299" transform="matrix(-4.37115e-08 -1 -1 4.37115e-08 60.8838 96.125)" stroke="white" stroke-opacity="0.12" stroke-width="0.318598"/>
<line y1="-0.159299" x2="81.5611" y2="-0.159299" transform="matrix(1 -8.74228e-08 -8.74228e-08 -1 1.62451 71.2744)" stroke="white" stroke-opacity="0.12" stroke-width="0.318598"/>
<line y1="-0.159299" x2="81.5611" y2="-0.159299" transform="matrix(1 0 0 -1 -0.291992 62.9912)" stroke="white" stroke-opacity="0.12" stroke-width="0.318598"/>
<g filter="url(#filter2_f_1473_42368)">
<path d="M21.5208 4.95448L9.73262 -25.6309L-7.47168 -2.37328L-5.87869 58.7976L16.7418 80.7808C25.8749 82.3738 45.9254 85.4324 53.062 84.9226C60.1986 84.4129 77.4878 71.9663 85.2404 65.8067L87.4706 13.8752L83.0102 -30.7285H75.0452L65.4873 -9.38244L57.5223 7.50326L38.0879 13.8752L21.5208 4.95448Z" fill="#141C1C"/>
</g>
<path d="M38.4368 45.852V35.1406L38.4443 35.1356L38.4368 35.1307L19.4658 21.3779V32.1017L31.049 40.4951L19.4658 48.8884V59.6097L38.4368 45.8594L38.4443 45.8545L38.4368 45.852Z" fill="#2EEDAA"/>
<path d="M61.2336 45.852V35.1406L61.2411 35.1356L61.2336 35.1307L42.2676 21.3779V32.1017L53.8483 40.4951L42.2676 48.8884V59.6097L61.2336 45.8594L61.2411 45.8545L61.2336 45.852Z" fill="#2EEDAA"/>
</g>
<rect x="0.617109" y="0.617597" width="78.7654" height="78.7654" rx="9.75309" stroke="white" stroke-opacity="0.08" stroke-width="0.246914"/>
</g>
<defs>
<filter id="filter0_f_1473_42368" x="-64.6914" y="-46.4194" width="109.63" height="75.0614" filterUnits="userSpaceOnUse" color-interpolation-filters="sRGB">
<feFlood flood-opacity="0" result="BackgroundImageFix"/>
<feBlend mode="normal" in="SourceGraphic" in2="BackgroundImageFix" result="shape"/>
<feGaussianBlur stdDeviation="15.8025" result="effect1_foregroundBlur_1473_42368"/>
</filter>
<filter id="filter1_f_1473_42368" x="-44.9383" y="-26.6663" width="70.1236" height="35.5553" filterUnits="userSpaceOnUse" color-interpolation-filters="sRGB">
<feFlood flood-opacity="0" result="BackgroundImageFix"/>
<feBlend mode="normal" in="SourceGraphic" in2="BackgroundImageFix" result="shape"/>
<feGaussianBlur stdDeviation="5.92593" result="effect1_foregroundBlur_1473_42368"/>
</filter>
<filter id="filter2_f_1473_42368" x="-30.4107" y="-53.6676" width="140.821" height="161.586" filterUnits="userSpaceOnUse" color-interpolation-filters="sRGB">
<feFlood flood-opacity="0" result="BackgroundImageFix"/>
<feBlend mode="normal" in="SourceGraphic" in2="BackgroundImageFix" result="shape"/>
<feGaussianBlur stdDeviation="11.4695" result="effect1_foregroundBlur_1473_42368"/>
</filter>
<linearGradient id="paint0_linear_1473_42368" x1="8.96691" y1="-14.8121" x2="-35.9706" y2="5.39572" gradientUnits="userSpaceOnUse">
<stop stop-color="#2EEDAA"/>
<stop offset="1" stop-color="#2EEDAA" stop-opacity="0"/>
</linearGradient>
<linearGradient id="paint1_linear_1473_42368" x1="8.96691" y1="-14.8121" x2="-35.9706" y2="5.39572" gradientUnits="userSpaceOnUse">
<stop stop-color="#2EEDAA"/>
<stop offset="1" stop-color="#2EEDAA" stop-opacity="0"/>
</linearGradient>
<clipPath id="clip0_1473_42368">
<rect width="80" height="80" rx="9.87654" fill="white"/>
</clipPath>
<clipPath id="clip1_1473_42368">
<rect x="0.493652" y="0.494141" width="79.0123" height="79.0123" rx="9.87654" fill="white"/>
</clipPath>
</defs>
</svg>
