<svg width="437" height="69" viewBox="0 0 437 69" fill="none" xmlns="http://www.w3.org/2000/svg">
<path d="M33.8495 43.6685V24.5564L33.8628 24.5475L33.8495 24.5387L0 7.62939e-06V19.1342L20.6676 34.1102L0 49.0862V68.216L33.8495 43.6818L33.8628 43.6729L33.8495 43.6685Z" fill="#2EEDAA"/>
<path d="M67.7033 43.6685V24.5564L67.7166 24.5475L67.7033 24.5387L33.8627 0V19.1342L54.5259 34.1102L33.8627 49.0862V68.216L67.7033 43.6817L67.7166 43.6729L67.7033 43.6685Z" fill="#2EEDAA"/>
<path d="M86.2811 62.3918H76.5107V5.11723H87.1649V24.0305C88.9327 22.2506 91.0363 20.8396 93.3538 19.8792C95.6713 18.9188 98.1564 18.4283 100.665 18.4361C112.561 18.4361 121.973 27.7601 121.973 40.8139C121.973 53.7792 112.561 63.1033 100.665 63.1033C98.1347 63.1153 95.6279 62.6184 93.2935 61.6421C90.9592 60.6659 88.8449 59.2302 87.0766 57.4204L86.2811 62.3918ZM99.5116 52.891C106.171 52.891 111.584 48.1847 111.584 40.8139C111.584 33.3546 106.171 28.6484 99.5116 28.6484C92.671 28.6484 87.1649 33.3546 87.1649 40.8139C87.1649 48.1847 92.671 52.891 99.5116 52.891Z" fill="#0C0D08"/>
<path d="M146.304 18.4364C158.558 18.4364 168.682 27.7604 168.682 40.8141C168.682 53.7795 158.558 63.1035 146.304 63.1035C133.874 63.1035 123.838 53.7795 123.838 40.8141C123.838 27.7604 133.874 18.4364 146.304 18.4364ZM146.304 52.7145C152.712 52.7145 158.015 48.0966 158.015 40.739C158.015 33.4433 152.712 28.8077 146.304 28.8077C139.733 28.8077 134.408 33.4256 134.408 40.7081C134.408 48.0966 139.733 52.7145 146.304 52.7145Z" fill="#0C0D08"/>
<path d="M170.546 18.8826H181.112V42.3253C181.112 49.6962 184.307 52.8911 190.171 52.8911C197.719 52.8911 202.067 46.4085 202.067 46.4085V18.8826H212.726V62.392H203.402L202.248 56.6208C200.495 58.6947 198.302 60.3524 195.829 61.4737C193.356 62.595 190.664 63.1517 187.948 63.1034C177.829 63.1034 170.546 55.379 170.546 44.9016V18.8826Z" fill="#0C0D08"/>
<path d="M257.124 62.3921H246.553V39.3073C246.553 31.848 243.358 28.6487 237.499 28.6487C229.951 28.6487 225.599 34.8662 225.599 34.8662V62.3921H214.944V18.8827H224.71L225.594 24.6539C229.129 20.5707 233.942 18.4364 239.713 18.4364C249.837 18.4364 257.119 26.1652 257.119 36.6426L257.124 62.3921Z" fill="#0C0D08"/>
<path d="M293.793 5.11723H304.451V62.3918H294.681L293.881 57.4204C292.113 59.2298 290 60.6653 287.666 61.6416C285.333 62.6179 282.826 63.1149 280.297 63.1033C268.397 63.1033 258.984 53.7792 258.984 40.8139C258.984 27.7601 268.397 18.4361 280.297 18.4361C282.805 18.4286 285.289 18.9193 287.606 19.8797C289.923 20.8401 292.025 22.251 293.793 24.0305V5.11723ZM281.45 28.6484C274.791 28.6484 269.373 33.3546 269.373 40.8139C269.373 48.1847 274.791 52.891 281.45 52.891C288.286 52.891 293.793 48.1847 293.793 40.8139C293.793 33.3546 288.286 28.6484 281.45 28.6484Z" fill="#0C0D08"/>
<path d="M306.67 5.11723H317.324V62.3918H306.67V5.11723Z" fill="#0C0D08"/>
<path d="M363.321 46.7619C361.81 56.5323 351.867 63.1122 341.566 63.1122C329.136 63.1122 319.1 53.7881 319.1 40.8228C319.1 27.7691 329.136 18.445 341.566 18.445C354.532 18.445 363.321 26.5274 363.661 39.3159V43.3902H329.913C330.983 49.1614 335.777 52.7143 341.549 52.7143C345.968 52.7143 350.073 50.5843 351.938 46.7619H363.321ZM351.509 34.9543C349.741 31.1363 346.096 28.8252 341.566 28.8252C336.948 28.8252 332.954 31.1363 331 34.9543H351.509Z" fill="#0C0D08"/>
<path d="M400.175 50.3146C400.175 58.0391 393.958 63.1032 383.745 63.1032C373.003 63.1032 365.809 55.9975 365.544 47.1197H376.198C376.64 50.6549 379.733 52.7142 383.927 52.7142C387.21 52.7142 389.521 51.6492 389.521 49.696C389.521 44.9014 366.167 48.4499 366.167 32.02C366.167 24.5608 372.826 18.4316 383.038 18.4316C392.893 18.4316 399.464 24.9143 399.729 34.5035H388.982C388.359 30.7739 386.141 28.8207 382.676 28.8207C379.304 28.8207 376.728 30.0668 376.728 32.2852C376.728 38.6839 400.175 34.7775 400.175 50.3146Z" fill="#0C0D08"/>
<path d="M436.221 50.3146C436.221 58.0391 430.008 63.1032 419.796 63.1032C409.049 63.1032 401.859 55.9975 401.594 47.1197H412.248C412.69 50.6549 415.783 52.7142 419.972 52.7142C423.26 52.7142 425.567 51.6492 425.567 49.696C425.567 44.9014 402.212 48.4499 402.212 32.02C402.212 24.5608 408.872 18.4316 419.084 18.4316C428.943 18.4316 435.514 24.9143 435.779 34.5035H425.037C424.413 30.7739 422.195 28.8207 418.731 28.8207C415.355 28.8207 412.783 30.0668 412.783 32.2852C412.783 38.6839 436.221 34.7775 436.221 50.3146Z" fill="#0C0D08"/>
</svg>
