<svg width="126" height="32" viewBox="0 0 126 32" fill="none" xmlns="http://www.w3.org/2000/svg">
<g clip-path="url(#clip0_600_6229)">
<path d="M18.5421 0C20.6569 0 22.7041 0.417391 24.64 1.23627C25.6676 1.67155 26.6534 2.22609 27.5697 2.87404L27.3749 2.97739L24.8606 4.26534C22.9406 3.19006 20.7583 2.62758 18.5421 2.62758H18.4407C16.7334 2.64547 15.0678 2.98534 13.4976 3.64323C11.9255 4.30907 10.5163 5.25516 9.30981 6.46758C6.8472 8.95006 5.4877 12.2435 5.4877 15.7396C5.4877 16.312 5.52149 16.8825 5.59901 17.4549L5.62484 17.6338L5.78584 17.5483L27.4882 6.43379L31.9821 4.13019L37.0703 1.5205V4.47205L31.8291 7.15925L29.2552 8.47304L6.38012 20.2037L6.27876 20.2634L5.10609 20.8616L3.91752 21.4678V21.4599L3.80621 21.5116L0 23.4594V20.5078L1.29193 19.8519C2.37118 19.2974 3.01714 18.1545 2.92373 16.9342C2.89789 16.5327 2.88199 16.1332 2.88199 15.7317C2.88199 13.607 3.29739 11.5439 4.11429 9.59801C4.90335 7.72174 6.03429 6.04025 7.46932 4.5913C8.90435 3.15031 10.5779 2.00745 12.4462 1.21242C14.3722 0.417391 16.4273 0 18.5421 0Z" fill="white"/>
<path d="M37.0763 8.41937V11.3709L35.7843 12.0268C34.7051 12.5814 34.0591 13.7242 34.1525 14.9446C34.1863 15.3461 34.1943 15.7555 34.1943 16.155C34.1943 18.2797 33.7789 20.3429 32.962 22.2887C32.1729 24.165 31.042 25.8465 29.607 27.2954C28.1719 28.7463 26.4904 29.8812 24.6301 30.6743C22.7021 31.4932 20.647 31.9106 18.5322 31.9106C16.4174 31.9106 14.3702 31.4932 12.4343 30.6743C11.3988 30.2311 10.4129 29.6765 9.49466 29.0286L12.0944 27.6969L12.1958 27.6452C14.1158 28.7205 16.3061 29.2909 18.5322 29.2909H18.6256C20.3329 29.283 21.9985 28.9411 23.5687 28.2753C25.1409 27.6094 26.5501 26.6633 27.7565 25.4509C30.2191 22.9764 31.5786 19.675 31.5786 16.1789C31.5786 15.6065 31.5448 15.0281 31.4673 14.4556L31.4415 14.2768L31.2805 14.3622L9.56224 25.4609L5.06832 27.7645L0 30.3602V27.4087L5.22335 24.7294L7.79727 23.4156L37.0763 8.41937Z" fill="white"/>
<path d="M51.2595 27.6214C51.2595 29.5692 50.1027 30.1754 48.4928 30.1754H47.1055V25.0733H48.4928C50.1047 25.0733 51.2595 25.6795 51.2595 27.6214ZM47.819 25.6795V29.5712H48.4709C49.5204 29.5712 50.5301 29.3605 50.5301 27.6234C50.5301 25.8862 49.5204 25.6815 48.4709 25.6815H47.819V25.6795Z" fill="white"/>
<path d="M53.5077 29.7044C54.0682 29.7044 54.3742 29.452 54.5372 29.0783H55.1951C55.0202 29.7322 54.4239 30.2669 53.5077 30.2669C52.3151 30.2669 51.6572 29.4082 51.6572 28.2892C51.6572 27.0927 52.4562 26.3255 53.4858 26.3255C54.6346 26.3255 55.3283 27.2954 55.2428 28.492H52.3469C52.3728 29.3069 52.9472 29.7024 53.5077 29.7024V29.7044ZM54.573 27.9454C54.5591 27.4107 54.1616 26.8761 53.4878 26.8761C52.9193 26.8761 52.4085 27.1861 52.3529 27.9454H54.573Z" fill="white"/>
<path d="M58.1185 26.389H58.7764L57.3553 30.1734H56.7868L55.3657 26.389H56.0733L57.0969 29.2869L58.1185 26.389Z" fill="white"/>
<path d="M60.5755 29.7044C61.136 29.7044 61.4441 29.452 61.6051 29.0783H62.263C62.0881 29.7322 61.4918 30.2669 60.5755 30.2669C59.383 30.2669 58.7251 29.4082 58.7251 28.2892C58.7251 27.0927 59.5221 26.3255 60.5537 26.3255C61.7025 26.3255 62.3962 27.2954 62.3107 28.492H59.4108C59.4406 29.3069 60.015 29.7024 60.5755 29.7024V29.7044ZM61.6429 27.9454C61.629 27.4107 61.2314 26.8761 60.5576 26.8761C59.9892 26.8761 59.4784 27.1861 59.4227 27.9454H61.6429Z" fill="white"/>
<path d="M62.895 30.1734V25.0733H63.533V30.1734H62.895Z" fill="white"/>
<path d="M65.9278 30.2668C65.0513 30.2668 64.1211 29.6686 64.1211 28.2971C64.1211 26.9257 65.0513 26.3275 65.9278 26.3275C66.8043 26.3275 67.7345 26.9257 67.7345 28.2971C67.7345 29.6686 66.8004 30.2668 65.9278 30.2668ZM67.0548 28.2952C67.0548 27.2894 66.5002 26.8879 65.9278 26.8879C65.3554 26.8879 64.7989 27.2616 64.7989 28.2952C64.7989 29.3287 65.3534 29.7024 65.9278 29.7024C66.5022 29.7024 67.0548 29.2671 67.0548 28.2952Z" fill="white"/>
<path d="M68.9691 26.9874C69.2016 26.5859 69.5991 26.3255 70.2014 26.3255C71.062 26.3255 71.8133 27.051 71.8133 28.2952C71.8133 29.5394 71.064 30.2649 70.2014 30.2649C69.5991 30.2649 69.1996 30.0045 68.9691 29.603V31.4038H68.3311V26.3891H68.9691V26.9874ZM71.1176 28.2952C71.1176 27.3948 70.6903 26.8741 70.0384 26.8741C69.4699 26.8741 68.9393 27.2954 68.9393 28.2952C68.9393 29.2949 69.4719 29.7163 70.0384 29.7163C70.6903 29.7163 71.1176 29.1976 71.1176 28.2952Z" fill="white"/>
<path d="M72.3994 30.1734V26.3891H73.0374V26.9595C73.2541 26.6017 73.6059 26.3275 74.1723 26.3275C74.7388 26.3275 75.0886 26.5819 75.2576 26.9953C75.5597 26.5322 76.0009 26.3275 76.5256 26.3275C77.4021 26.3275 77.744 26.9178 77.744 27.7843V30.1754H77.106V27.9712C77.106 27.3888 76.9927 26.882 76.299 26.882C75.7525 26.882 75.3887 27.3113 75.3887 28.1202V30.1734H74.7507V27.9712C74.7507 27.3888 74.6374 26.882 73.9438 26.882C73.3992 26.882 73.0335 27.3113 73.0335 28.1202V30.1734H72.3994Z" fill="white"/>
<path d="M80.2049 29.7044C80.7654 29.7044 81.0715 29.452 81.2345 29.0783H81.8924C81.7175 29.7322 81.1212 30.2669 80.2049 30.2669C79.0124 30.2669 78.3545 29.4082 78.3545 28.2892C78.3545 27.0927 79.1515 26.3255 80.1831 26.3255C81.3319 26.3255 82.0255 27.2954 81.9401 28.492H79.0402C79.068 29.3069 79.6424 29.7024 80.2049 29.7024V29.7044ZM81.2683 27.9454C81.2544 27.4107 80.8569 26.8761 80.1831 26.8761C79.6146 26.8761 79.1038 27.1861 79.0482 27.9454H81.2683Z" fill="white"/>
<path d="M84.3926 26.3255C85.3029 26.3255 85.6309 26.9158 85.6309 27.7824V30.1735H84.9928V27.9712C84.9928 27.3889 84.8955 26.882 84.166 26.882C83.5479 26.882 83.1702 27.3113 83.1702 28.1203V30.1735H82.5322V26.3891H83.1702V26.9595C83.3909 26.5998 83.7526 26.3255 84.3906 26.3255H84.3926Z" fill="white"/>
<path d="M87.2645 25.441V26.391H87.9781V26.9038H87.2645V29.1478C87.2645 29.5414 87.2923 29.6407 87.6561 29.6407H87.9781V30.1774H87.5169C86.7955 30.1774 86.6265 30.0144 86.6265 29.2273V26.9058H86.0322V26.393H86.6265V25.443H87.2645V25.441Z" fill="white"/>
<path d="M94.4673 25.0733V25.6934H91.8835V27.2398H94.3203V27.8599H91.8815V30.1754H91.168V25.0733H94.4673Z" fill="white"/>
<path d="M96.5328 30.2668C95.6563 30.2668 94.7261 29.6686 94.7261 28.2971C94.7261 26.9257 95.6563 26.3275 96.5328 26.3275C97.4093 26.3275 98.3395 26.9257 98.3395 28.2971C98.3395 29.6686 97.4093 30.2668 96.5328 30.2668ZM97.6617 28.2952C97.6617 27.2894 97.1072 26.8879 96.5348 26.8879C95.9623 26.8879 95.4058 27.2616 95.4058 28.2952C95.4058 29.3287 95.9604 29.7024 96.5348 29.7024C97.1092 29.7024 97.6617 29.2671 97.6617 28.2952Z" fill="white"/>
<path d="M100.126 30.2668C99.2498 30.2668 98.9219 29.6765 98.9219 28.8099V26.389H99.5599V28.6211C99.5599 29.2034 99.6573 29.7103 100.351 29.7103C100.953 29.7103 101.311 29.281 101.311 28.472V26.389H101.949V30.1734H101.311V29.6308C101.09 29.9885 100.748 30.2648 100.124 30.2648H100.126V30.2668Z" fill="white"/>
<path d="M104.588 26.3255C105.499 26.3255 105.827 26.9158 105.827 27.7824V30.1735H105.189V27.9712C105.189 27.3889 105.089 26.882 104.362 26.882C103.744 26.882 103.366 27.3113 103.366 28.1203V30.1735H102.728V26.3891H103.366V26.9595C103.585 26.5998 103.95 26.3255 104.586 26.3255H104.588Z" fill="white"/>
<path d="M109.897 25.0733V30.1734H109.259V29.603C109.027 30.0045 108.629 30.2649 108.027 30.2649C107.164 30.2649 106.415 29.5473 106.415 28.2952C106.415 27.043 107.164 26.3255 108.027 26.3255C108.629 26.3255 109.029 26.5858 109.259 26.9873V25.0733H109.897ZM107.111 28.2952C107.111 29.1955 107.538 29.7163 108.19 29.7163C108.758 29.7163 109.289 29.2949 109.289 28.2952C109.289 27.2954 108.756 26.874 108.19 26.874C107.538 26.874 107.111 27.3948 107.111 28.2952Z" fill="white"/>
<path d="M113.05 27.846V27.7546C113.05 27.0649 112.664 26.8343 112.195 26.8343C111.67 26.8343 111.362 27.1225 111.332 27.5856H110.674C110.738 26.7707 111.452 26.3136 112.189 26.3136C113.224 26.3136 113.693 26.8125 113.688 27.8758L113.682 28.7464C113.676 29.3784 113.709 29.8157 113.781 30.1735H113.137C113.117 30.0343 113.095 29.8793 113.087 29.6527C112.855 30.0403 112.463 30.2649 111.799 30.2649C111.092 30.2649 110.503 29.8714 110.503 29.1757C110.501 28.2813 111.501 28.0229 113.051 27.848L113.05 27.846ZM111.209 29.1598C111.209 29.5176 111.481 29.7581 111.936 29.7581C112.531 29.7581 113.099 29.4838 113.099 28.5894V28.3509C111.942 28.4721 111.207 28.6411 111.207 29.1598H111.209Z" fill="white"/>
<path d="M115.313 25.441V26.391H116.027V26.9038H115.313V29.1478C115.313 29.5414 115.341 29.6407 115.705 29.6407H116.027V30.1774H115.566C114.844 30.1774 114.675 30.0144 114.675 29.2273V26.9058H114.081V26.393H114.675V25.443H115.313V25.441Z" fill="white"/>
<path d="M117.442 25.8485H116.804V25.0733H117.442V25.8485ZM117.442 30.1734H116.804V26.3891H117.442V30.1734Z" fill="white"/>
<path d="M119.845 30.2668C118.968 30.2668 118.038 29.6686 118.038 28.2971C118.038 26.9257 118.968 26.3275 119.845 26.3275C120.721 26.3275 121.652 26.9257 121.652 28.2971C121.652 29.6686 120.721 30.2668 119.845 30.2668ZM120.972 28.2952C120.972 27.2894 120.417 26.8879 119.843 26.8879C119.268 26.8879 118.714 27.2616 118.714 28.2952C118.714 29.3287 119.268 29.7024 119.843 29.7024C120.417 29.7024 120.972 29.2671 120.972 28.2952Z" fill="white"/>
<path d="M124.09 26.3255C125.001 26.3255 125.329 26.9158 125.329 27.7824V30.1735H124.691V27.9712C124.691 27.3889 124.593 26.882 123.864 26.882C123.246 26.882 122.868 27.3113 122.868 28.1203V30.1735H122.23V26.3891H122.868V26.9595C123.087 26.5998 123.45 26.3255 124.088 26.3255H124.09Z" fill="white"/>
<path d="M63.024 6.44172H60.2175C59.5119 4.04867 57.1865 3.24768 55.1114 3.24768C53.5253 3.24768 50.7427 3.95725 50.7427 6.26681C50.7427 8.09339 52.1877 9.00172 54.0898 9.42706L56.4729 9.96967C59.6193 10.6534 63.3897 11.8459 63.3897 16.0079C63.3897 20.1699 59.6451 22.1873 55.5586 22.1873C50.7089 22.1873 47.6441 19.5359 47.1055 15.4077H49.9457C50.4863 18.2599 52.4699 19.7366 55.6183 19.7366C58.7666 19.7366 60.4103 18.2857 60.4103 16.2584C60.4103 14.0899 58.5678 13.1816 55.984 12.6131L53.4339 12.0705C50.6275 11.4445 47.7872 9.87625 47.7872 6.43377C47.7872 2.50631 51.8975 0.796997 55.2188 0.796997C58.9137 0.804947 62.227 2.45662 63.024 6.4437V6.44172Z" fill="white"/>
<path d="M69.776 2.6554V6.49937H72.6659V8.57639H69.776V17.6576C69.776 19.2497 69.8912 19.6512 71.3621 19.6512H72.6659V21.8196H70.7976C67.8739 21.8196 67.1941 21.1617 67.1941 17.9756V8.57639H64.7852V6.49937H67.1941V2.6554H69.776Z" fill="white"/>
<path d="M81.4013 19.9175C83.6691 19.9175 84.9134 18.8919 85.5693 17.3814H88.2346C87.529 20.0328 85.1121 22.1933 81.4013 22.1933C76.5774 22.1933 73.9121 18.715 73.9121 14.1873C73.9121 9.34162 77.1419 6.23901 81.3099 6.23901C85.9608 6.23901 88.7673 10.1665 88.4274 15.0122H76.6848C76.81 18.3155 79.1355 19.9155 81.4013 19.9155V19.9175ZM85.7104 12.796C85.6527 10.6276 84.0408 8.46709 81.3178 8.46709C79.0182 8.46709 76.9491 9.71727 76.7265 12.796H85.7104Z" fill="white"/>
<path d="M90.876 21.8197V1.17072H93.4578V21.8197H90.876Z" fill="white"/>
<path d="M96.6299 21.8197V1.17072H99.2117V21.8197H96.6299Z" fill="white"/>
<path d="M111.919 12.3965V12.0288C111.919 9.23427 110.358 8.3001 108.456 8.3001C106.329 8.3001 105.085 9.46681 104.968 11.3451H102.303C102.561 8.04172 105.449 6.19128 108.43 6.19128C112.624 6.19128 114.526 8.20868 114.5 12.5138L114.477 16.0417C114.453 18.6017 114.592 20.3707 114.876 21.8216H112.268C112.185 21.2551 112.101 20.629 112.07 19.7108C111.131 21.279 109.545 22.1873 106.854 22.1873C103.99 22.1873 101.607 20.5953 101.607 17.7749C101.599 14.1635 105.652 13.1041 111.92 12.3965H111.919ZM104.461 17.7252C104.461 19.1761 105.566 20.1441 107.409 20.1441C109.818 20.1441 112.117 19.035 112.117 15.4156V14.4477C107.435 14.9307 104.461 15.6144 104.461 17.7252Z" fill="white"/>
<path d="M123.884 9.09316C121.5 9.09316 120.312 10.4368 120.312 13.7978V21.8296H117.73V6.49937H120.254V9.17664C121.017 7.44148 122.58 6.47353 124.563 6.41589C124.82 6.41589 125.044 6.41589 125.326 6.44173V9.20248C124.786 9.15279 124.305 9.09316 123.882 9.09316H123.884Z" fill="white"/>
</g>
<defs>
<clipPath id="clip0_600_6229">
<rect width="125.416" height="32" fill="white"/>
</clipPath>
</defs>
</svg>
