<svg width="25" height="25" viewBox="0 0 25 25" fill="none" xmlns="http://www.w3.org/2000/svg">
<g clip-path="url(#clip0_600_6261)">
<path d="M12.1211 0.504883C18.5365 0.504883 23.7372 5.70572 23.7373 12.1211C23.7373 18.5366 18.5366 23.7373 12.1211 23.7373C5.70572 23.7372 0.504883 18.5365 0.504883 12.1211C0.504947 5.70576 5.70576 0.504947 12.1211 0.504883Z" stroke="white" stroke-width="1.0101"/>
<path d="M15.1684 13.7303C15.1684 12.1212 14.1987 11.5697 12.2593 11.3394C10.8744 11.1553 10.5979 10.7879 10.5979 10.144C10.5979 9.50003 11.06 9.0864 11.9828 9.0864C12.8138 9.0864 13.276 9.36216 13.5063 10.0523C13.5302 10.119 13.5741 10.1769 13.6319 10.2178C13.6897 10.2589 13.7588 10.2812 13.8297 10.2819H14.5684C14.611 10.283 14.6535 10.2755 14.6932 10.2597C14.7328 10.244 14.7688 10.2203 14.7991 10.1902C14.8293 10.1601 14.8532 10.1241 14.8691 10.0846C14.885 10.045 14.8928 10.0025 14.8919 9.95988V9.91443C14.8016 9.41511 14.5489 8.95958 14.1732 8.61859C13.7974 8.27761 13.3195 8.07034 12.8138 8.02882V6.9258C12.8138 6.74171 12.6752 6.60383 12.4449 6.55762H11.7517C11.5676 6.55762 11.429 6.6955 11.3828 6.9258V7.98337C9.99717 8.1667 9.12065 9.0864 9.12065 10.2364C9.12065 11.7531 10.0434 12.3508 11.9828 12.5811C13.276 12.8106 13.6911 13.0872 13.6911 13.8228C13.6911 14.5576 13.0449 15.0637 12.1676 15.0637C10.9669 15.0637 10.5517 14.5584 10.4131 13.8682C10.3676 13.6849 10.2282 13.5925 10.0896 13.5925H9.30474C9.26209 13.5914 9.21974 13.599 9.1802 13.6149C9.14058 13.6306 9.10467 13.6544 9.07444 13.6844C9.04429 13.7145 9.02058 13.7504 9.00467 13.79C8.98876 13.8295 8.98103 13.8719 8.98202 13.9144V13.9599C9.16611 15.1099 9.9055 15.9372 11.429 16.1675V17.2712C11.429 17.4546 11.5676 17.5932 11.7979 17.6387H12.4911C12.6752 17.6387 12.8138 17.5008 12.86 17.2712V16.1667C14.2457 15.9372 15.1684 14.972 15.1684 13.7303Z" fill="white"/>
<path d="M9.76681 18.5582C6.16532 17.2704 4.31835 13.2704 5.65775 9.7302C6.35017 7.79838 7.87363 6.32793 9.76681 5.63778C9.95166 5.54611 10.0433 5.40823 10.0433 5.17793V4.53399C10.0433 4.35066 9.95166 4.21278 9.76681 4.16656C9.72059 4.16656 9.62817 4.16656 9.58196 4.21202C8.54294 4.5365 7.57832 5.06333 6.74367 5.76215C5.90904 6.46097 5.2209 7.31799 4.71884 8.28384C4.21679 9.24975 3.91075 10.3054 3.81836 11.39C3.72597 12.4746 3.84903 13.5668 4.18047 14.6037C5.01078 17.1794 6.99638 19.1567 9.58196 19.984C9.76681 20.0757 9.95166 19.984 9.99711 19.7999C10.0433 19.7544 10.0433 19.7075 10.0433 19.6158V18.9719C10.0433 18.834 9.90544 18.6507 9.76681 18.5582ZM14.6607 4.21278C14.4759 4.12035 14.291 4.21278 14.2456 4.39611C14.1994 4.44232 14.1994 4.48853 14.1994 4.5802V5.22414C14.1994 5.40823 14.3373 5.59156 14.4759 5.68399C18.0774 6.97187 19.9244 10.9719 18.585 14.512C17.8926 16.4438 16.3691 17.9143 14.4759 18.6044C14.291 18.6961 14.1994 18.834 14.1994 19.0643V19.7082C14.1994 19.8916 14.291 20.0294 14.4759 20.0757C14.5221 20.0757 14.6145 20.0757 14.6607 20.0302C15.6998 19.7057 16.6645 19.1789 17.4991 18.4801C18.3337 17.7813 19.0219 16.9242 19.5239 15.9584C20.026 14.9925 20.332 13.9369 20.4244 12.8522C20.5168 11.7676 20.3937 10.6754 20.0623 9.63853C19.232 7.01732 17.2001 5.04005 14.6607 4.21278Z" fill="white"/>
</g>
<defs>
<clipPath id="clip0_600_6261">
<rect width="24.2424" height="24.2424" fill="white"/>
</clipPath>
</defs>
</svg>
