<svg width="20" height="20" viewBox="0 0 20 20" fill="none" xmlns="http://www.w3.org/2000/svg">
<path d="M13.9224 11.4227L10.5891 14.756C10.2637 15.0814 9.73602 15.0814 9.41058 14.756L6.07725 11.4227C5.75181 11.0972 5.75181 10.5696 6.07725 10.2442C6.40268 9.91872 6.93032 9.91872 7.25576 10.2442L9.1665 12.1549V2.50008C9.1665 2.03984 9.5396 1.66675 9.99984 1.66675C10.4601 1.66675 10.8332 2.03984 10.8332 2.50008V12.1549L12.7439 10.2442C13.0694 9.91872 13.597 9.91872 13.9224 10.2442C14.2479 10.5696 14.2479 11.0972 13.9224 11.4227Z" fill="#1C1E13"/>
<path d="M3.33317 14.5834C3.33317 14.1232 2.96007 13.7501 2.49984 13.7501C2.0396 13.7501 1.6665 14.1232 1.6665 14.5834V15.8334C1.6665 17.6744 3.15889 19.1667 4.99984 19.1667H14.9998C16.8408 19.1667 18.3332 17.6744 18.3332 15.8334V14.5834C18.3332 14.1232 17.9601 13.7501 17.4998 13.7501C17.0396 13.7501 16.6665 14.1232 16.6665 14.5834V15.8334C16.6665 16.7539 15.9203 17.5001 14.9998 17.5001H4.99984C4.07936 17.5001 3.33317 16.7539 3.33317 15.8334V14.5834Z" fill="#1C1E13"/>
</svg>
