<svg width="141" height="120" viewBox="0 0 141 120" fill="none" xmlns="http://www.w3.org/2000/svg">
<path d="M70.369 120C109.233 120 140.738 118.161 140.738 115.892C140.738 113.623 109.233 111.783 70.369 111.783C31.5053 111.783 0 113.623 0 115.892C0 118.161 31.5053 120 70.369 120Z" fill="#F5F5F5" fill-opacity="0.12"/>
<path d="M58.8882 30.6721H36.2267C35.9073 30.6721 35.6484 30.931 35.6484 31.2503V40.7017C35.6484 41.021 35.9073 41.2799 36.2267 41.2799H58.8882C59.2076 41.2799 59.4665 41.021 59.4665 40.7017V31.2503C59.4665 30.931 59.2076 30.6721 58.8882 30.6721Z" fill="#136447"/>
<path d="M50.6467 28.9837H44.4637C43.9949 28.983 43.5455 28.7965 43.214 28.465C42.8825 28.1335 42.696 27.6841 42.6953 27.2153V25.6276C42.696 25.1588 42.8825 24.7094 43.214 24.3779C43.5455 24.0464 43.9949 23.8599 44.4637 23.8592H50.6467C51.1157 23.8592 51.5655 24.0455 51.8972 24.3771C52.2288 24.7088 52.4151 25.1586 52.4151 25.6276V27.2076C52.4161 27.4404 52.3712 27.6712 52.2827 27.8867C52.1943 28.1021 52.0642 28.298 51.8999 28.463C51.7356 28.6281 51.5403 28.759 51.3252 28.8484C51.1102 28.9377 50.8796 28.9837 50.6467 28.9837ZM44.4637 25.1577C44.3393 25.1591 44.2203 25.2089 44.132 25.2967C44.0438 25.3844 43.9933 25.5032 43.9913 25.6276V27.2076C43.9913 27.3342 44.0416 27.4557 44.1312 27.5453C44.2207 27.6348 44.3422 27.6852 44.4689 27.6852H50.6519C50.7785 27.6852 50.9 27.6348 50.9896 27.5453C51.0792 27.4557 51.1295 27.3342 51.1295 27.2076V25.6276C51.1295 25.5009 51.0792 25.3795 50.9896 25.2899C50.9 25.2003 50.7785 25.15 50.6519 25.15L44.4637 25.1577Z" fill="#136447"/>
<path opacity="0.2" d="M58.8856 30.6721H36.2293C36.1531 30.6717 36.0777 30.6864 36.0072 30.7153C35.9368 30.7442 35.8727 30.7868 35.8187 30.8405C35.7648 30.8943 35.7219 30.9581 35.6927 31.0285C35.6635 31.0988 35.6484 31.1742 35.6484 31.2503V34.2838L47.4465 36.6072C47.5188 36.6229 47.5936 36.6229 47.6659 36.6072L59.4665 34.2838V31.2503C59.4665 31.1742 59.4514 31.0988 59.4222 31.0285C59.393 30.9581 59.3502 30.8943 59.2962 30.8405C59.2422 30.7868 59.1782 30.7442 59.1077 30.7153C59.0373 30.6864 58.9618 30.6717 58.8856 30.6721Z" fill="black"/>
<path d="M59.4809 33.6306L47.6597 35.954C47.5862 35.967 47.5111 35.967 47.4377 35.954L35.6164 33.6306C35.4865 33.6049 35.3695 33.5351 35.2853 33.433C35.2011 33.3309 35.1548 33.2027 35.1543 33.0704V27.365C35.1543 27.29 35.1691 27.2159 35.1977 27.1466C35.2264 27.0774 35.2684 27.0145 35.3214 26.9615C35.3744 26.9086 35.4373 26.8665 35.5065 26.8379C35.5757 26.8092 35.6499 26.7944 35.7248 26.7944H59.3777C59.4526 26.7944 59.5268 26.8092 59.596 26.8379C59.6652 26.8665 59.7281 26.9086 59.7811 26.9615C59.8341 27.0145 59.8761 27.0774 59.9048 27.1466C59.9334 27.2159 59.9482 27.29 59.9482 27.365V33.0807C59.9456 33.2121 59.8977 33.3387 59.8125 33.4389C59.7274 33.5391 59.6102 33.6068 59.4809 33.6306Z" fill="#136447"/>
<path d="M48.7812 34.4077H46.3364C46.0341 34.4077 45.7891 34.6527 45.7891 34.955V36.5013C45.7891 36.8036 46.0341 37.0487 46.3364 37.0487H48.7812C49.0834 37.0487 49.3285 36.8036 49.3285 36.5013V34.955C49.3285 34.6527 49.0834 34.4077 48.7812 34.4077Z" fill="#136447"/>
<path opacity="0.4" d="M48.7812 34.4077H46.3364C46.0341 34.4077 45.7891 34.6527 45.7891 34.955V36.5013C45.7891 36.8036 46.0341 37.0487 46.3364 37.0487H48.7812C49.0834 37.0487 49.3285 36.8036 49.3285 36.5013V34.955C49.3285 34.6527 49.0834 34.4077 48.7812 34.4077Z" fill="black"/>
<path d="M111.125 34.1392C111.543 34.9993 111.851 35.8123 112.214 36.6615C112.577 37.5108 112.842 38.3564 113.125 39.2238C113.699 40.9825 114.123 42.7867 114.392 44.617C114.428 44.8457 114.446 45.0925 114.471 45.3429L114.508 45.7058C114.508 45.7711 114.508 45.8183 114.508 45.8945V46.1304C114.52 46.6808 114.472 47.2308 114.366 47.7709C114.186 48.7096 113.93 49.6321 113.6 50.5292C112.981 52.2346 112.208 53.8805 111.292 55.4469L109.448 54.6666C109.859 53.0117 110.272 51.324 110.584 49.6944C110.737 48.9137 110.845 48.1248 110.907 47.3318C110.929 47.0075 110.922 46.682 110.886 46.3591L110.846 46.1304L110.795 45.8401C110.755 45.6477 110.73 45.4554 110.682 45.2594C110.321 43.6574 109.853 42.0812 109.281 40.5413C109.006 39.7537 108.701 38.9698 108.396 38.1822C108.091 37.3947 107.754 36.6035 107.441 35.8776L111.125 34.1392Z" fill="#7F3E3B"/>
<path d="M109.527 54.1839L108.111 55.563L111.2 57.0148C111.2 57.0148 111.948 55.7082 111.432 54.5251L109.527 54.1839Z" fill="#7F3E3B"/>
<path d="M106.973 57.6209L109.579 58.6879L111.201 57.0003L108.112 55.563L106.973 57.6209Z" fill="#7F3E3B"/>
<path opacity="0.2" d="M54.1119 56.1329C59.2476 55.5577 64.0974 53.4727 68.0481 50.1414C71.9989 46.8101 74.8732 42.3823 76.3077 37.4176C77.7421 32.4529 77.6723 27.1743 76.1071 22.2493C74.5418 17.3243 71.5514 12.974 67.514 9.74836C63.4765 6.52275 58.5732 4.56669 53.4242 4.12751C48.2751 3.68833 43.1114 4.78574 38.586 7.281C34.0606 9.77625 30.3766 13.5573 27.9999 18.1461C25.6232 22.7349 24.6604 27.9254 25.2334 33.0613C25.614 36.4727 26.6629 39.7756 28.3203 42.7815C29.9777 45.7874 32.2111 48.4373 34.8929 50.5799C37.5747 52.7224 40.6523 54.3156 43.95 55.2684C47.2476 56.2212 50.7007 56.5149 54.1119 56.1329Z" fill="#136447"/>
<path opacity="0.1" d="M35.0977 9.57954L74.8388 41.3216C75.0093 40.9587 75.169 40.5957 75.3251 40.2328C76.3211 37.8631 76.9572 35.3578 77.2123 32.8L42.8862 5.3913C40.0692 6.33074 37.4346 7.74745 35.0977 9.57954Z" fill="white"/>
<path opacity="0.1" d="M25.9297 23.4907L63.29 53.3419C66.8399 51.4905 69.9168 48.8481 72.2834 45.6187L31.4826 13.0129C28.8531 16.0338 26.9532 19.6187 25.9297 23.4907Z" fill="white"/>
<path d="M115.578 59.5118C115.53 58.8513 115.314 58.214 114.95 57.6608C114.685 57.2539 114.315 56.9265 113.879 56.7136L111.4 55.4977C109.752 54.6811 108.094 53.8863 106.435 53.0915C104.777 52.2967 103.107 51.5164 101.445 50.7288C99.7827 49.9412 98.1059 49.1754 96.4256 48.4242C93.0721 46.9047 89.6968 45.4264 86.2997 43.9891C84.6012 43.2633 82.8991 42.5664 81.1824 41.8841C80.6812 41.6868 80.2738 41.3063 80.0426 40.8197C79.8115 40.3332 79.7739 39.777 79.9375 39.2638C82.2354 32.019 81.7121 24.1736 78.4725 17.2981C75.2328 10.4226 69.5159 5.02447 62.466 2.18422C55.4162 -0.656035 47.5537 -0.72878 40.4525 1.98055C33.3513 4.68988 27.5355 9.98135 24.1692 16.7957C20.8029 23.61 20.1345 31.4444 22.298 38.7305C24.4614 46.0166 29.2969 52.2167 35.8366 56.0897C42.3763 59.9627 50.1375 61.2227 57.5665 59.6176C64.9956 58.0126 71.5443 53.6607 75.9017 47.4334C76.2102 46.9907 76.6753 46.6819 77.203 46.5694C77.7306 46.4568 78.2813 46.549 78.7435 46.8273C80.3307 47.7709 81.9252 48.6988 83.5269 49.611C86.728 51.4353 89.9533 53.2137 93.2027 54.9461C94.825 55.8244 96.4691 56.67 98.0842 57.5302C99.6992 58.3903 101.351 59.2287 102.995 60.0707C104.639 60.9127 106.261 61.7365 107.927 62.5495L110.398 63.7762C110.833 63.9946 111.318 64.09 111.803 64.052C112.463 64.0053 113.099 63.789 113.65 63.4242C114.308 63.0203 114.838 62.4386 115.179 61.7463C115.52 61.0539 115.658 60.2793 115.578 59.5118ZM40.6791 51.4837C36.4601 49.4018 32.9531 46.1155 30.6019 42.0405C28.2506 37.9654 27.1606 33.2846 27.4697 28.59C27.7788 23.8954 29.4731 19.3979 32.3383 15.6663C35.2036 11.9347 39.1111 9.13657 43.5667 7.62582C48.0223 6.11507 52.8259 5.95955 57.3698 7.17892C61.9138 8.39829 65.9942 10.9378 69.0948 14.4762C72.1955 18.0147 74.1772 22.3932 74.7893 27.0579C75.4014 31.7227 74.6165 36.4642 72.5337 40.6828C71.1514 43.4837 69.231 45.9849 66.882 48.0436C64.533 50.1023 61.8015 51.6781 58.8435 52.681C55.8855 53.684 52.7589 54.0945 49.6422 53.889C46.5256 53.6836 43.4799 52.8663 40.6791 51.4837Z" fill="#136447"/>
<path d="M97.4378 22.9209C97.4378 23.135 97.3253 23.3092 97.1837 23.3092C97.0422 23.3092 96.9297 23.135 96.9297 22.9209C96.9297 22.7068 97.0422 22.5289 97.1837 22.5289C97.3253 22.5289 97.4378 22.7031 97.4378 22.9209Z" fill="#263238"/>
<path d="M97.3438 23.3093C97.0887 23.9667 96.7443 24.5859 96.3203 25.1493C96.4671 25.2544 96.6351 25.326 96.8126 25.3592C96.99 25.3925 97.1725 25.3865 97.3474 25.3417L97.3438 23.3093Z" fill="#630F0F"/>
<path d="M98.2 21.7233C98.2264 21.7225 98.2518 21.7136 98.2729 21.6977C98.2939 21.6819 98.3095 21.6598 98.3175 21.6347C98.3255 21.6096 98.3254 21.5826 98.3174 21.5575C98.3093 21.5324 98.2937 21.5104 98.2726 21.4946C98.1122 21.3744 97.9257 21.294 97.7282 21.2599C97.5307 21.2258 97.328 21.2391 97.1366 21.2986C97.1195 21.3033 97.1035 21.3115 97.0897 21.3227C97.076 21.334 97.0647 21.3479 97.0567 21.3638C97.0487 21.3796 97.044 21.397 97.0431 21.4147C97.0422 21.4325 97.0451 21.4502 97.0514 21.4668C97.0578 21.4834 97.0676 21.4984 97.0802 21.511C97.0927 21.5235 97.1078 21.5333 97.1243 21.5397C97.1409 21.5461 97.1587 21.5489 97.1764 21.548C97.1941 21.5471 97.2115 21.5425 97.2273 21.5345C97.3797 21.4892 97.5405 21.4804 97.6969 21.5088C97.8532 21.5371 98.0007 21.6019 98.1274 21.6978C98.1479 21.7146 98.1736 21.7236 98.2 21.7233Z" fill="#263238"/>
<path d="M104.781 24.5396C104.396 26.4922 104.015 30.0671 105.38 31.3664C105.38 31.3664 104.846 33.3444 101.224 33.3444C97.2317 33.3444 99.3186 31.3664 99.3186 31.3664C101.496 30.8474 101.438 29.2323 101.057 27.7371L104.781 24.5396Z" fill="#7F3E3B"/>
<path d="M106.08 30.1432C106.381 30.2412 105.99 32.0341 105.99 32.0341C105.99 32.0341 105.492 33.2862 99.3152 32.8507C98.8397 32.8144 99.0212 31.0941 99.4749 30.8437C100.937 30.0452 105.108 29.8239 106.08 30.1432Z" fill="#263238"/>
<path d="M118.627 105.129C118.961 105.096 119.447 104.483 119.585 104.258C119.591 104.248 119.595 104.237 119.595 104.225C119.595 104.214 119.591 104.202 119.585 104.192C119.579 104.182 119.57 104.173 119.559 104.168C119.548 104.163 119.535 104.161 119.523 104.163C119.487 104.163 118.609 104.33 118.395 104.671C118.372 104.707 118.357 104.747 118.351 104.789C118.345 104.831 118.347 104.874 118.358 104.915C118.406 105.074 118.496 105.118 118.569 105.129H118.627ZM119.393 104.319C119.157 104.646 118.769 105.027 118.583 105.002C118.565 105.002 118.511 105.002 118.478 104.878C118.471 104.855 118.469 104.83 118.473 104.805C118.477 104.781 118.486 104.757 118.5 104.737C118.75 104.513 119.061 104.368 119.393 104.319Z" fill="#136447"/>
<path d="M119.355 104.319C119.42 104.314 119.484 104.303 119.547 104.287C119.558 104.283 119.567 104.277 119.575 104.269C119.583 104.261 119.588 104.25 119.591 104.24C119.593 104.228 119.592 104.217 119.588 104.206C119.584 104.195 119.578 104.185 119.569 104.178C119.547 104.156 118.959 103.655 118.56 103.695C118.512 103.698 118.465 103.712 118.422 103.734C118.38 103.757 118.343 103.788 118.313 103.826C118.279 103.859 118.258 103.903 118.253 103.95C118.248 103.997 118.261 104.045 118.288 104.083C118.418 104.29 118.992 104.356 119.355 104.319ZM119.384 104.192C119.021 104.236 118.491 104.163 118.389 104.015C118.389 104.015 118.36 103.967 118.411 103.902C118.431 103.878 118.456 103.858 118.484 103.844C118.512 103.83 118.543 103.821 118.574 103.819C118.875 103.86 119.157 103.99 119.384 104.192Z" fill="#136447"/>
<path d="M93.6739 114.674C93.9488 114.673 94.2232 114.649 94.4941 114.601C94.5063 114.598 94.5173 114.592 94.5262 114.583C94.5352 114.574 94.5416 114.563 94.5449 114.55C94.5471 114.538 94.5452 114.524 94.5393 114.512C94.5334 114.501 94.5239 114.491 94.5123 114.485C94.4723 114.46 93.5432 113.93 93.0968 114.05C93.0132 114.071 92.9415 114.124 92.8972 114.198C92.8688 114.239 92.8535 114.287 92.8535 114.336C92.8535 114.386 92.8688 114.434 92.8972 114.474C93.0133 114.634 93.3327 114.674 93.6739 114.674ZM94.2909 114.507C93.7936 114.576 93.1186 114.572 92.9952 114.402C92.9771 114.38 92.9625 114.34 92.9952 114.26C93.0085 114.238 93.0263 114.218 93.0476 114.203C93.0689 114.188 93.0931 114.178 93.1186 114.173C93.4053 114.097 93.9642 114.34 94.2909 114.507Z" fill="#136447"/>
<path d="M94.4653 114.601C94.4784 114.605 94.4922 114.605 94.5053 114.601C94.5136 114.594 94.5202 114.585 94.5246 114.575C94.5291 114.565 94.5311 114.554 94.5307 114.543C94.5307 114.514 94.4545 113.796 94.1169 113.516C94.0669 113.474 94.009 113.443 93.9466 113.425C93.8842 113.406 93.8187 113.4 93.754 113.407C93.5798 113.425 93.5326 113.512 93.5181 113.585C93.4709 113.886 94.1097 114.463 94.4291 114.609L94.4653 114.601ZM93.8157 113.513C93.8967 113.515 93.9747 113.544 94.0371 113.596C94.2386 113.826 94.3652 114.112 94.4 114.416C94.0698 114.22 93.6379 113.767 93.6742 113.585C93.6742 113.585 93.6742 113.527 93.7976 113.516L93.8157 113.513Z" fill="#136447"/>
<path d="M97.413 114.54H94.749L94.4805 108.362H97.148L97.413 114.54Z" fill="#7F3E3B"/>
<path d="M121.914 102.305L119.835 103.971L114.543 100.298L116.626 98.6323L121.914 102.305Z" fill="#7F3E3B"/>
<path d="M119.453 103.866L121.58 101.757C121.618 101.72 121.667 101.698 121.72 101.692C121.773 101.687 121.826 101.7 121.87 101.728L123.914 103.042C123.963 103.074 124.005 103.117 124.035 103.167C124.066 103.218 124.084 103.275 124.089 103.333C124.095 103.392 124.086 103.451 124.065 103.507C124.044 103.562 124.011 103.611 123.968 103.652C123.213 104.377 122.81 104.69 121.874 105.615C121.3 106.189 119.896 107.894 119.101 108.682C118.306 109.469 117.421 108.787 117.678 108.392C118.822 106.628 119.21 105.172 119.261 104.287C119.272 104.128 119.34 103.978 119.453 103.866Z" fill="#263238"/>
<path d="M94.7633 114.231H97.6667C97.7194 114.231 97.7706 114.249 97.8116 114.282C97.8526 114.315 97.8809 114.361 97.8917 114.413L98.418 116.782C98.4313 116.839 98.4313 116.899 98.4183 116.956C98.4052 117.013 98.3793 117.066 98.3426 117.111C98.3058 117.157 98.2592 117.193 98.2063 117.218C98.1533 117.243 98.0954 117.255 98.0369 117.254C96.9844 117.254 95.4674 117.178 94.1463 117.178C92.6038 117.178 91.2719 117.262 89.4608 117.262C88.372 117.262 88.0635 116.155 88.5208 116.053C90.6077 115.599 92.3098 115.549 94.11 114.438C94.3042 114.309 94.5305 114.238 94.7633 114.231Z" fill="#263238"/>
<path d="M110.635 32.1648C112.947 33.2536 113.901 40.7155 113.901 40.7155L108.584 42.8023C107.759 40.782 107.09 38.701 106.584 36.5781C105.84 33.21 108.257 31.0324 110.635 32.1648Z" fill="#136447"/>
<path opacity="0.3" d="M110.635 32.1648C112.947 33.2536 113.901 40.7155 113.901 40.7155L108.584 42.8023C107.759 40.782 107.09 38.701 106.584 36.5781C105.84 33.21 108.257 31.0324 110.635 32.1648Z" fill="white"/>
<path opacity="0.2" d="M107.19 34.3533C107.009 34.2653 106.819 34.196 106.624 34.1464C106.412 34.9422 106.404 35.7786 106.602 36.5781C107.106 38.7012 107.773 40.7822 108.598 42.8024L110.351 42.1164C110.028 40.1675 109.037 35.2389 107.19 34.3533Z" fill="black"/>
<path d="M95.2163 32.1067C95.2163 32.1067 92.3782 35.3114 95.0566 55.1529H109.32C109.418 52.9753 108.042 42.2833 110.155 31.9688C108.577 31.6654 106.982 31.4642 105.378 31.3663C103.36 31.2501 101.336 31.2501 99.3175 31.3663C97.9332 31.5058 96.562 31.7534 95.2163 32.1067Z" fill="#136447"/>
<path opacity="0.3" d="M95.2163 32.1067C95.2163 32.1067 92.3782 35.3114 95.0566 55.1529H109.32C109.418 52.9753 108.042 42.2833 110.155 31.9688C108.577 31.6654 106.982 31.4642 105.378 31.3663C103.36 31.2501 101.336 31.2501 99.3175 31.3663C97.9332 31.5058 96.562 31.7534 95.2163 32.1067Z" fill="white"/>
<path opacity="0.2" d="M98.0946 36.3603C97.4486 34.4222 95.8952 33.8016 94.3129 34.9521C93.9935 36.8321 93.7685 39.8626 94.0262 44.6678L96.8098 44.6424C96.8098 44.6424 99.0491 39.2456 98.0946 36.3603Z" fill="black"/>
<path d="M97.573 35.5655C97.4569 36.5382 97.2972 37.4201 97.1194 38.3383C96.9415 39.2565 96.7347 40.153 96.4988 41.0567C96.033 42.9037 95.3988 44.7041 94.6042 46.4353C94.3974 46.8817 94.1578 47.3209 93.9038 47.76C93.7731 47.9814 93.6425 48.2028 93.4937 48.4206C93.3007 48.7232 93.073 49.0021 92.815 49.2517C92.3142 49.7161 91.7204 50.0687 91.0729 50.286C90.5472 50.4702 90.0034 50.598 89.4506 50.6671C88.4642 50.7894 87.4673 50.8016 86.4782 50.7034C85.9943 50.6647 85.5225 50.603 85.0628 50.5183C84.5909 50.4348 84.1445 50.3477 83.6582 50.2207L83.8941 48.2318C85.5506 48.1623 87.1953 47.919 88.801 47.506C89.1276 47.4093 89.4446 47.283 89.7482 47.1285C89.9476 47.0371 90.1219 46.8989 90.2563 46.7257C90.2273 46.7511 90.4922 46.3119 90.6483 45.9998C90.8043 45.6877 90.9785 45.2739 91.1273 44.911C91.4322 44.1634 91.6935 43.3722 91.9331 42.5628C92.1726 41.7535 92.3831 40.9296 92.5791 40.0949C92.7751 39.2601 92.942 38.4181 93.1235 37.5544C93.3049 36.6906 93.4356 35.8341 93.5663 35.032L97.573 35.5655Z" fill="#7F3E3B"/>
<path d="M98.7801 34.063C99.5314 36.4982 96.4828 43.7569 96.4828 43.7569L90.0625 42.1418C90.4555 39.8475 91.117 37.6073 92.0332 35.4675C94.1019 30.9381 97.8764 31.1268 98.7801 34.063Z" fill="#136447"/>
<path opacity="0.3" d="M98.7801 34.063C99.5314 36.4982 96.4828 43.7569 96.4828 43.7569L90.0625 42.1418C90.4555 39.8475 91.117 37.6073 92.0332 35.4675C94.1019 30.9381 97.8764 31.1268 98.7801 34.063Z" fill="white"/>
<path d="M83.9844 48.2427L80.9648 48.1665L82.4166 51.3059C82.4166 51.3059 83.6433 51.4692 84.6522 49.8106L85.7156 48.544L84.4925 48.2972C84.325 48.2645 84.1551 48.2463 83.9844 48.2427Z" fill="#7F3E3B"/>
<path d="M79.0586 48.7508L80.7898 51.3531L82.4194 51.3059L80.964 48.1665L79.0586 48.7508Z" fill="#7F3E3B"/>
<path opacity="0.2" d="M94.4844 108.366L94.6187 111.549H97.2862L97.1483 108.366H94.4844Z" fill="black"/>
<path opacity="0.2" d="M116.626 98.6323L114.543 100.298L117.272 102.193L119.355 100.527L116.626 98.6323Z" fill="black"/>
<path d="M104.628 22.4491C104.468 25.0912 104.511 26.6446 103.176 28.002C101.172 30.0416 97.9097 28.8367 97.2782 26.1873C96.7084 23.8137 97.0677 19.894 99.6518 18.8379C100.222 18.6022 100.842 18.5165 101.455 18.589C102.067 18.6614 102.651 18.8897 103.15 19.2518C103.649 19.614 104.047 20.0981 104.305 20.6578C104.564 21.2176 104.675 21.8343 104.628 22.4491Z" fill="#7F3E3B"/>
<path d="M106.763 19.9957C106.763 19.9957 108.153 20.4094 107.717 21.9954C107.06 24.4053 105.514 27.1781 103.518 27.3523C101.032 27.5737 99.9107 25.0078 99.584 22.3547C98.096 21.3349 96.9927 20.3804 97.3484 19.3206C97.8928 17.6874 99.8671 16.2792 103.01 16.6422C106.153 17.0051 107.717 19.0375 106.763 19.9957Z" fill="#263238"/>
<path d="M101.096 22.8991C101.048 23.5544 100.785 24.1756 100.348 24.6666C99.7677 25.3053 99.1579 24.9061 99.0563 24.1295C98.9656 23.4254 99.1543 22.2458 99.8657 21.8938C100.577 21.5417 101.143 22.1079 101.096 22.8991Z" fill="#7F3E3B"/>
<path d="M100.116 55.153C100.116 55.153 99.2157 73.1254 100.969 80.7397C103.745 92.7963 115.951 102.458 115.951 102.458L119.87 99.3182C119.87 99.3182 109.828 91.8454 108.924 81.8067C108.115 72.7915 109.313 62.437 109.313 55.153H100.116Z" fill="#136447"/>
<path opacity="0.2" d="M100.116 55.153C100.116 55.153 99.2157 73.1254 100.969 80.7397C103.745 92.7963 115.951 102.458 115.951 102.458L119.87 99.3182C119.87 99.3182 109.828 91.8454 108.924 81.8067C108.115 72.7915 109.313 62.437 109.313 55.153H100.116Z" fill="black"/>
<path opacity="0.2" d="M101.455 60.4772C101.092 59.7767 100.384 61.8636 99.8906 64.542C99.8906 68.2367 99.9559 72.4394 100.279 75.9998C102.743 71.445 102.221 61.9289 101.455 60.4772Z" fill="black"/>
<path d="M114.174 101.685L115.662 102.839L120.188 99.1694L118.83 97.9391L114.174 101.685Z" fill="#2C6BDB"/>
<path opacity="0.4" d="M114.174 101.685L115.662 102.839L120.188 99.1694L118.83 97.9391L114.174 101.685Z" fill="#FAFAFA"/>
<path d="M95.0575 55.153C95.0575 55.153 91.0434 72.1745 90.7603 80.3042C90.4446 89.4247 93.6239 110.932 93.6239 110.932H98.1424C98.1424 110.932 98.6977 89.2577 98.9009 80.9502C99.1187 71.895 104.432 55.153 104.432 55.153H95.0575Z" fill="#136447"/>
<path opacity="0.2" d="M95.0575 55.153C95.0575 55.153 91.0434 72.1745 90.7603 80.3042C90.4446 89.4247 93.6239 110.932 93.6239 110.932H98.1424C98.1424 110.932 98.6977 89.2577 98.9009 80.9502C99.1187 71.895 104.432 55.153 104.432 55.153H95.0575Z" fill="black"/>
<path d="M92.7571 109.132C92.7353 109.132 93.0111 111.008 93.0111 111.008H98.5059L98.6547 109.335L92.7571 109.132Z" fill="#2C6BDB"/>
<path opacity="0.4" d="M92.7571 109.132C92.7353 109.132 93.0111 111.008 93.0111 111.008H98.5059L98.6547 109.335L92.7571 109.132Z" fill="#FAFAFA"/>
<path d="M59.7288 21.257C58.5803 21.257 57.4576 21.5975 56.5026 22.2356C55.5477 22.8737 54.8034 23.7806 54.3639 24.8417C53.9244 25.9027 53.8094 27.0703 54.0335 28.1967C54.2575 29.3232 54.8106 30.3579 55.6227 31.17C56.4348 31.9821 57.4695 32.5352 58.5959 32.7592C59.7224 32.9833 60.8899 32.8683 61.951 32.4288C63.0121 31.9893 63.919 31.245 64.5571 30.29C65.1951 29.3351 65.5357 28.2124 65.5357 27.0639C65.5357 25.5238 64.9239 24.0468 63.8349 22.9578C62.7459 21.8688 61.2689 21.257 59.7288 21.257ZM59.7288 32.1189C58.729 32.1189 57.7517 31.8224 56.9204 31.2669C56.0891 30.7115 55.4412 29.922 55.0586 28.9983C54.676 28.0747 54.5759 27.0583 54.7709 26.0777C54.966 25.0971 55.4474 24.1964 56.1544 23.4895C56.8613 22.7825 57.762 22.3011 58.7426 22.106C59.7232 21.911 60.7396 22.0111 61.6633 22.3937C62.5869 22.7763 63.3764 23.4242 63.9319 24.2555C64.4873 25.0868 64.7838 26.0641 64.7838 27.0639C64.7838 28.4045 64.2512 29.6903 63.3032 30.6383C62.3552 31.5863 61.0695 32.1189 59.7288 32.1189Z" fill="#136447"/>
<path opacity="0.6" d="M59.7288 21.257C58.5803 21.257 57.4576 21.5975 56.5026 22.2356C55.5477 22.8737 54.8034 23.7806 54.3639 24.8417C53.9244 25.9027 53.8094 27.0703 54.0335 28.1967C54.2575 29.3232 54.8106 30.3579 55.6227 31.17C56.4348 31.9821 57.4695 32.5352 58.5959 32.7592C59.7224 32.9833 60.8899 32.8683 61.951 32.4288C63.0121 31.9893 63.919 31.245 64.5571 30.29C65.1951 29.3351 65.5357 28.2124 65.5357 27.0639C65.5357 25.5238 64.9239 24.0468 63.8349 22.9578C62.7459 21.8688 61.2689 21.257 59.7288 21.257ZM59.7288 32.1189C58.729 32.1189 57.7517 31.8224 56.9204 31.2669C56.0891 30.7115 55.4412 29.922 55.0586 28.9983C54.676 28.0747 54.5759 27.0583 54.7709 26.0777C54.966 25.0971 55.4474 24.1964 56.1544 23.4895C56.8613 22.7825 57.762 22.3011 58.7426 22.106C59.7232 21.911 60.7396 22.0111 61.6633 22.3937C62.5869 22.7763 63.3764 23.4242 63.9319 24.2555C64.4873 25.0868 64.7838 26.0641 64.7838 27.0639C64.7838 28.4045 64.2512 29.6903 63.3032 30.6383C62.3552 31.5863 61.0695 32.1189 59.7288 32.1189Z" fill="#FAFAFA"/>
<path d="M59.7287 32.1168C62.5193 32.1168 64.7815 29.8545 64.7815 27.0639C64.7815 24.2732 62.5193 22.011 59.7287 22.011C56.938 22.011 54.6758 24.2732 54.6758 27.0639C54.6758 29.8545 56.938 32.1168 59.7287 32.1168Z" fill="#136447"/>
<path opacity="0.2" d="M59.7287 32.1168C62.5193 32.1168 64.7815 29.8545 64.7815 27.0639C64.7815 24.2732 62.5193 22.011 59.7287 22.011C56.938 22.011 54.6758 24.2732 54.6758 27.0639C54.6758 29.8545 56.938 32.1168 59.7287 32.1168Z" fill="black"/>
<path d="M58.2389 27.6485C58.2389 28.154 58.3288 28.5444 58.5085 28.8196C58.6939 29.0948 58.9691 29.2324 59.3342 29.2324C59.7105 29.2324 59.9857 29.0976 60.1598 28.828C60.3396 28.5584 60.4294 28.1765 60.4294 27.6822V26.7723C60.4294 26.25 60.3396 25.8512 60.1598 25.576C59.9857 25.2951 59.7105 25.1547 59.3342 25.1547C58.9691 25.1547 58.6939 25.2923 58.5085 25.5675C58.3288 25.8427 58.2389 26.2331 58.2389 26.7386V27.6485ZM61.6258 27.6485C61.6258 28.4573 61.4236 29.0836 61.0192 29.5273C60.6204 29.971 60.0587 30.1928 59.3342 30.1928C58.6096 30.1928 58.048 29.9766 57.6492 29.5441C57.2504 29.106 57.051 28.4854 57.051 27.6822V26.7723C57.051 25.9523 57.2504 25.3176 57.6492 24.8683C58.0536 24.4189 58.6152 24.1943 59.3342 24.1943C60.0643 24.1943 60.6288 24.4161 61.0276 24.8598C61.4264 25.3035 61.6258 25.9298 61.6258 26.7386V27.6485Z" fill="white"/>
</svg>
